{
  "header": {
    "PPQ": 480,
    "timeSignature": [
      2,
      4
    ],
    "bpm": 150,
    "name": "untitled"
  },
  "startTime": 0,
  "duration": 77.79999999999993,
  "tracks": [
    {
      "startTime": 0,
      "duration": 0,
      "length": 0,
      "notes": [],
      "controlChanges": {},
      "id": 0,
      "name": "untitled"
    },
    {
      "startTime": 0,
      "duration": 0,
      "length": 0,
      "notes": [],
      "controlChanges": {},
      "id": 1,
      "name": "Grand Piano",
      "instrumentNumber": 24,
      "instrument": "acoustic guitar (nylon)",
      "instrumentFamily": "guitar",
      "channelNumber": 0,
      "isPercussion": false
    },
    {
      "startTime": 0,
      "duration": 0,
      "length": 0,
      "notes": [],
      "controlChanges": {},
      "id": 2,
      "name": "Acoustic Bass",
      "instrumentNumber": 32,
      "instrument": "acoustic bass",
      "instrumentFamily": "bass",
      "channelNumber": 1,
      "isPercussion": false
    },
    {
      "startTime": 0,
      "duration": 77.79999999999993,
      "length": 734,
      "notes": [
        {
          "name": "E5",
          "midi": 76,
          "time": 0,
          "velocity": 0.8976377952755905,
          "duration": 0.1
        },
        {
          "name": "D#5",
          "midi": 75,
          "time": 0.1,
          "velocity": 0.7637795275590551,
          "duration": 0.1
        },
        {
          "name": "D5",
          "midi": 74,
          "time": 0.2,
          "velocity": 0.7795275590551181,
          "duration": 0.10000000000000003
        },
        {
          "name": "C#5",
          "midi": 73,
          "time": 0.30000000000000004,
          "velocity": 0.7952755905511811,
          "duration": 0.09999999999999998
        },
        {
          "name": "D5",
          "midi": 74,
          "time": 0.4,
          "velocity": 0.8503937007874016,
          "duration": 0.09999999999999998
        },
        {
          "name": "C#5",
          "midi": 73,
          "time": 0.5,
          "velocity": 0.7795275590551181,
          "duration": 0.09999999999999998
        },
        {
          "name": "C5",
          "midi": 72,
          "time": 0.6,
          "velocity": 0.7716535433070866,
          "duration": 0.09999999999999998
        },
        {
          "name": "B4",
          "midi": 71,
          "time": 0.7,
          "velocity": 0.8110236220472441,
          "duration": 0.09999999999999998
        },
        {
          "name": "C5",
          "midi": 72,
          "time": 0.7999999999999999,
          "velocity": 0.84251968503937,
          "duration": 0.09999999999999998
        },
        {
          "name": "B4",
          "midi": 71,
          "time": 0.8999999999999999,
          "velocity": 0.7637795275590551,
          "duration": 0.09999999999999998
        },
        {
          "name": "A#4",
          "midi": 70,
          "time": 0.9999999999999999,
          "velocity": 0.7480314960629921,
          "duration": 0.09999999999999998
        },
        {
          "name": "A4",
          "midi": 69,
          "time": 1.0999999999999999,
          "velocity": 0.7637795275590551,
          "duration": 0.10000000000000009
        },
        {
          "name": "G#4",
          "midi": 68,
          "time": 1.2,
          "velocity": 0.7559055118110236,
          "duration": 0.10000000000000009
        },
        {
          "name": "G4",
          "midi": 67,
          "time": 1.3,
          "velocity": 0.7874015748031497,
          "duration": 0.10000000000000009
        },
        {
          "name": "F#4",
          "midi": 66,
          "time": 1.4000000000000001,
          "velocity": 0.7559055118110236,
          "duration": 0.10000000000000009
        },
        {
          "name": "F4",
          "midi": 65,
          "time": 1.5000000000000002,
          "velocity": 0.7952755905511811,
          "duration": 0.10000000000000009
        },
        {
          "name": "E4",
          "midi": 64,
          "time": 1.6000000000000003,
          "velocity": 0.7874015748031497,
          "duration": 0.10000000000000009
        },
        {
          "name": "D#4",
          "midi": 63,
          "time": 1.7000000000000004,
          "velocity": 0.7480314960629921,
          "duration": 0.10000000000000009
        },
        {
          "name": "D4",
          "midi": 62,
          "time": 1.8000000000000005,
          "velocity": 0.8031496062992126,
          "duration": 0.10000000000000009
        },
        {
          "name": "C#4",
          "midi": 61,
          "time": 1.9000000000000006,
          "velocity": 0.7480314960629921,
          "duration": 0.09999999999999987
        },
        {
          "name": "D4",
          "midi": 62,
          "time": 2.0000000000000004,
          "velocity": 0.7322834645669292,
          "duration": 0.10000000000000009
        },
        {
          "name": "C#4",
          "midi": 61,
          "time": 2.1000000000000005,
          "velocity": 0.7322834645669292,
          "duration": 0.10000000000000009
        },
        {
          "name": "C4",
          "midi": 60,
          "time": 2.2000000000000006,
          "velocity": 0.7244094488188977,
          "duration": 0.10000000000000009
        },
        {
          "name": "B3",
          "midi": 59,
          "time": 2.3000000000000007,
          "velocity": 0.7480314960629921,
          "duration": 0.10000000000000009
        },
        {
          "name": "C4",
          "midi": 60,
          "time": 2.400000000000001,
          "velocity": 0.7322834645669292,
          "duration": 0.10000000000000009
        },
        {
          "name": "B3",
          "midi": 59,
          "time": 2.500000000000001,
          "velocity": 0.7322834645669292,
          "duration": 0.10000000000000009
        },
        {
          "name": "A#3",
          "midi": 58,
          "time": 2.600000000000001,
          "velocity": 0.7322834645669292,
          "duration": 0.10000000000000009
        },
        {
          "name": "A3",
          "midi": 57,
          "time": 2.700000000000001,
          "velocity": 0.7165354330708661,
          "duration": 0.10000000000000009
        },
        {
          "name": "G#3",
          "midi": 56,
          "time": 2.800000000000001,
          "velocity": 0.7244094488188977,
          "duration": 0.10000000000000009
        },
        {
          "name": "G3",
          "midi": 55,
          "time": 2.9000000000000012,
          "velocity": 0.7480314960629921,
          "duration": 0.10000000000000009
        },
        {
          "name": "F#3",
          "midi": 54,
          "time": 3.0000000000000013,
          "velocity": 0.6929133858267716,
          "duration": 0.10000000000000009
        },
        {
          "name": "F3",
          "midi": 53,
          "time": 3.1000000000000014,
          "velocity": 0.7244094488188977,
          "duration": 0.10000000000000009
        },
        {
          "name": "E3",
          "midi": 52,
          "time": 3.2000000000000015,
          "velocity": 0.8031496062992126,
          "duration": 0.10000000000000009
        },
        {
          "name": "D#3",
          "midi": 51,
          "time": 3.3000000000000016,
          "velocity": 0.7086614173228346,
          "duration": 0.10000000000000009
        },
        {
          "name": "D3",
          "midi": 50,
          "time": 3.4000000000000017,
          "velocity": 0.7086614173228346,
          "duration": 0.10000000000000009
        },
        {
          "name": "C#3",
          "midi": 49,
          "time": 3.5000000000000018,
          "velocity": 0.7322834645669292,
          "duration": 0.10000000000000009
        },
        {
          "name": "D3",
          "midi": 50,
          "time": 3.600000000000002,
          "velocity": 0.7559055118110236,
          "duration": 0.10000000000000009
        },
        {
          "name": "C#3",
          "midi": 49,
          "time": 3.700000000000002,
          "velocity": 0.7401574803149606,
          "duration": 0.10000000000000009
        },
        {
          "name": "C3",
          "midi": 48,
          "time": 3.800000000000002,
          "velocity": 0.7086614173228346,
          "duration": 0.10000000000000009
        },
        {
          "name": "B2",
          "midi": 47,
          "time": 3.900000000000002,
          "velocity": 0.7401574803149606,
          "duration": 0.09999999999999964
        },
        {
          "name": "E3",
          "midi": 52,
          "time": 4.000000000000002,
          "velocity": 0.7716535433070866,
          "duration": 0.09999999999999964
        },
        {
          "name": "D#3",
          "midi": 51,
          "time": 4.100000000000001,
          "velocity": 0.7165354330708661,
          "duration": 0.09999999999999964
        },
        {
          "name": "D3",
          "midi": 50,
          "time": 4.200000000000001,
          "velocity": 0.7086614173228346,
          "duration": 0.09999999999999964
        },
        {
          "name": "C#3",
          "midi": 49,
          "time": 4.300000000000001,
          "velocity": 0.6929133858267716,
          "duration": 0.09999999999999964
        },
        {
          "name": "D3",
          "midi": 50,
          "time": 4.4,
          "velocity": 0.7244094488188977,
          "duration": 0.09999999999999964
        },
        {
          "name": "C#3",
          "midi": 49,
          "time": 4.5,
          "velocity": 0.6771653543307087,
          "duration": 0.09999999999999964
        },
        {
          "name": "C3",
          "midi": 48,
          "time": 4.6,
          "velocity": 0.6692913385826772,
          "duration": 0.09999999999999964
        },
        {
          "name": "B2",
          "midi": 47,
          "time": 4.699999999999999,
          "velocity": 0.6535433070866141,
          "duration": 0.09999999999999964
        },
        {
          "name": "E3",
          "midi": 52,
          "time": 4.799999999999999,
          "velocity": 0.6771653543307087,
          "duration": 0.09999999999999964
        },
        {
          "name": "D#3",
          "midi": 51,
          "time": 4.899999999999999,
          "velocity": 0.5984251968503937,
          "duration": 0.09999999999999964
        },
        {
          "name": "D3",
          "midi": 50,
          "time": 4.999999999999998,
          "velocity": 0.6299212598425197,
          "duration": 0.09999999999999964
        },
        {
          "name": "C#3",
          "midi": 49,
          "time": 5.099999999999998,
          "velocity": 0.5669291338582677,
          "duration": 0.09999999999999964
        },
        {
          "name": "C3",
          "midi": 48,
          "time": 5.1999999999999975,
          "velocity": 0.5669291338582677,
          "duration": 0.09999999999999964
        },
        {
          "name": "F3",
          "midi": 53,
          "time": 5.299999999999997,
          "velocity": 0.6692913385826772,
          "duration": 0.09999999999999964
        },
        {
          "name": "E3",
          "midi": 52,
          "time": 5.399999999999997,
          "velocity": 0.6220472440944882,
          "duration": 0.09999999999999964
        },
        {
          "name": "D#3",
          "midi": 51,
          "time": 5.4999999999999964,
          "velocity": 0.5748031496062992,
          "duration": 0.09999999999999964
        },
        {
          "name": "E3",
          "midi": 52,
          "time": 5.599999999999996,
          "velocity": 0.6535433070866141,
          "duration": 0.09999999999999964
        },
        {
          "name": "D#3",
          "midi": 51,
          "time": 5.699999999999996,
          "velocity": 0.5826771653543307,
          "duration": 0.09999999999999964
        },
        {
          "name": "D3",
          "midi": 50,
          "time": 5.799999999999995,
          "velocity": 0.5905511811023622,
          "duration": 0.09999999999999964
        },
        {
          "name": "C#3",
          "midi": 49,
          "time": 5.899999999999995,
          "velocity": 0.6062992125984252,
          "duration": 0.09999999999999964
        },
        {
          "name": "C3",
          "midi": 48,
          "time": 5.999999999999995,
          "velocity": 0.6614173228346457,
          "duration": 0.09999999999999964
        },
        {
          "name": "C#3",
          "midi": 49,
          "time": 6.099999999999994,
          "velocity": 0.5905511811023622,
          "duration": 0.09999999999999964
        },
        {
          "name": "D3",
          "midi": 50,
          "time": 6.199999999999994,
          "velocity": 0.5826771653543307,
          "duration": 0.09999999999999964
        },
        {
          "name": "D#3",
          "midi": 51,
          "time": 6.299999999999994,
          "velocity": 0.5984251968503937,
          "duration": 0.09999999999999964
        },
        {
          "name": "E3",
          "midi": 52,
          "time": 6.399999999999993,
          "velocity": 0.5905511811023622,
          "duration": 0.09999999999999964
        },
        {
          "name": "D#3",
          "midi": 51,
          "time": 6.499999999999993,
          "velocity": 0.5826771653543307,
          "duration": 0.09999999999999964
        },
        {
          "name": "D3",
          "midi": 50,
          "time": 6.5999999999999925,
          "velocity": 0.5275590551181102,
          "duration": 0.09999999999999964
        },
        {
          "name": "C#3",
          "midi": 49,
          "time": 6.699999999999992,
          "velocity": 0.5826771653543307,
          "duration": 0.09999999999999964
        },
        {
          "name": "C3",
          "midi": 48,
          "time": 6.799999999999992,
          "velocity": 0.5354330708661418,
          "duration": 0.09999999999999964
        },
        {
          "name": "F3",
          "midi": 53,
          "time": 6.8999999999999915,
          "velocity": 0.6141732283464567,
          "duration": 0.09999999999999964
        },
        {
          "name": "E3",
          "midi": 52,
          "time": 6.999999999999991,
          "velocity": 0.5511811023622047,
          "duration": 0.09999999999999964
        },
        {
          "name": "D#3",
          "midi": 51,
          "time": 7.099999999999991,
          "velocity": 0.5275590551181102,
          "duration": 0.09999999999999964
        },
        {
          "name": "E3",
          "midi": 52,
          "time": 7.19999999999999,
          "velocity": 0.6535433070866141,
          "duration": 0.09999999999999964
        },
        {
          "name": "D#3",
          "midi": 51,
          "time": 7.29999999999999,
          "velocity": 0.5354330708661418,
          "duration": 0.09999999999999964
        },
        {
          "name": "D3",
          "midi": 50,
          "time": 7.39999999999999,
          "velocity": 0.5433070866141733,
          "duration": 0.09999999999999964
        },
        {
          "name": "C#3",
          "midi": 49,
          "time": 7.499999999999989,
          "velocity": 0.5433070866141733,
          "duration": 0.09999999999999964
        },
        {
          "name": "C3",
          "midi": 48,
          "time": 7.599999999999989,
          "velocity": 0.5984251968503937,
          "duration": 0.09999999999999964
        },
        {
          "name": "C#3",
          "midi": 49,
          "time": 7.699999999999989,
          "velocity": 0.5196850393700787,
          "duration": 0.09999999999999964
        },
        {
          "name": "D3",
          "midi": 50,
          "time": 7.799999999999988,
          "velocity": 0.5196850393700787,
          "duration": 0.09999999999999964
        },
        {
          "name": "D#3",
          "midi": 51,
          "time": 7.899999999999988,
          "velocity": 0.5511811023622047,
          "duration": 0.09999999999999964
        },
        {
          "name": "E3",
          "midi": 52,
          "time": 7.999999999999988,
          "velocity": 0.6220472440944882,
          "duration": 0.09999999999999964
        },
        {
          "name": "D#3",
          "midi": 51,
          "time": 8.099999999999987,
          "velocity": 0.5511811023622047,
          "duration": 0.09999999999999964
        },
        {
          "name": "D3",
          "midi": 50,
          "time": 8.199999999999987,
          "velocity": 0.5511811023622047,
          "duration": 0.09999999999999964
        },
        {
          "name": "C#3",
          "midi": 49,
          "time": 8.299999999999986,
          "velocity": 0.5748031496062992,
          "duration": 0.09999999999999964
        },
        {
          "name": "D3",
          "midi": 50,
          "time": 8.399999999999986,
          "velocity": 0.6535433070866141,
          "duration": 0.09999999999999964
        },
        {
          "name": "C#3",
          "midi": 49,
          "time": 8.499999999999986,
          "velocity": 0.5826771653543307,
          "duration": 0.09999999999999964
        },
        {
          "name": "C3",
          "midi": 48,
          "time": 8.599999999999985,
          "velocity": 0.5669291338582677,
          "duration": 0.09999999999999964
        },
        {
          "name": "B2",
          "midi": 47,
          "time": 8.699999999999985,
          "velocity": 0.5354330708661418,
          "duration": 0.09999999999999964
        },
        {
          "name": "C3",
          "midi": 48,
          "time": 8.799999999999985,
          "velocity": 0.6535433070866141,
          "duration": 0.09999999999999964
        },
        {
          "name": "C#3",
          "midi": 49,
          "time": 8.899999999999984,
          "velocity": 0.5669291338582677,
          "duration": 0.09999999999999964
        },
        {
          "name": "D3",
          "midi": 50,
          "time": 8.999999999999984,
          "velocity": 0.5275590551181102,
          "duration": 0.09999999999999964
        },
        {
          "name": "D#3",
          "midi": 51,
          "time": 9.099999999999984,
          "velocity": 0.5669291338582677,
          "duration": 0.09999999999999964
        },
        {
          "name": "E3",
          "midi": 52,
          "time": 9.199999999999983,
          "velocity": 0.6220472440944882,
          "duration": 0.09999999999999964
        },
        {
          "name": "F3",
          "midi": 53,
          "time": 9.299999999999983,
          "velocity": 0.5196850393700787,
          "duration": 0.09999999999999964
        },
        {
          "name": "E3",
          "midi": 52,
          "time": 9.399999999999983,
          "velocity": 0.5433070866141733,
          "duration": 0.09999999999999964
        },
        {
          "name": "D#3",
          "midi": 51,
          "time": 9.499999999999982,
          "velocity": 0.5196850393700787,
          "duration": 0.09999999999999964
        },
        {
          "name": "E3",
          "midi": 52,
          "time": 9.599999999999982,
          "velocity": 0.6062992125984252,
          "duration": 0.09999999999999964
        },
        {
          "name": "D#3",
          "midi": 51,
          "time": 9.699999999999982,
          "velocity": 0.5275590551181102,
          "duration": 0.09999999999999964
        },
        {
          "name": "D3",
          "midi": 50,
          "time": 9.799999999999981,
          "velocity": 0.5511811023622047,
          "duration": 0.09999999999999964
        },
        {
          "name": "C#3",
          "midi": 49,
          "time": 9.89999999999998,
          "velocity": 0.5511811023622047,
          "duration": 0.09999999999999964
        },
        {
          "name": "D3",
          "midi": 50,
          "time": 9.99999999999998,
          "velocity": 0.6141732283464567,
          "duration": 0.09999999999999964
        },
        {
          "name": "C#3",
          "midi": 49,
          "time": 10.09999999999998,
          "velocity": 0.5354330708661418,
          "duration": 0.09999999999999964
        },
        {
          "name": "C3",
          "midi": 48,
          "time": 10.19999999999998,
          "velocity": 0.5196850393700787,
          "duration": 0.09999999999999964
        },
        {
          "name": "B2",
          "midi": 47,
          "time": 10.29999999999998,
          "velocity": 0.5275590551181102,
          "duration": 0.09999999999999964
        },
        {
          "name": "C3",
          "midi": 48,
          "time": 10.399999999999979,
          "velocity": 0.6062992125984252,
          "duration": 0.09999999999999964
        },
        {
          "name": "C#3",
          "midi": 49,
          "time": 10.499999999999979,
          "velocity": 0.5511811023622047,
          "duration": 0.09999999999999964
        },
        {
          "name": "D3",
          "midi": 50,
          "time": 10.599999999999978,
          "velocity": 0.5433070866141733,
          "duration": 0.09999999999999964
        },
        {
          "name": "D#3",
          "midi": 51,
          "time": 10.699999999999978,
          "velocity": 0.5669291338582677,
          "duration": 0.09999999999999964
        },
        {
          "name": "E3",
          "midi": 52,
          "time": 10.799999999999978,
          "velocity": 0.5669291338582677,
          "duration": 0.09999999999999964
        },
        {
          "name": "F#3",
          "midi": 54,
          "time": 10.899999999999977,
          "velocity": 0.5905511811023622,
          "duration": 0.09999999999999964
        },
        {
          "name": "G3",
          "midi": 55,
          "time": 10.999999999999977,
          "velocity": 0.5826771653543307,
          "duration": 0.09999999999999964
        },
        {
          "name": "G#3",
          "midi": 56,
          "time": 11.099999999999977,
          "velocity": 0.6141732283464567,
          "duration": 0.09999999999999964
        },
        {
          "name": "A3",
          "midi": 57,
          "time": 11.199999999999976,
          "velocity": 0.6614173228346457,
          "duration": 0.09999999999999964
        },
        {
          "name": "G#3",
          "midi": 56,
          "time": 11.299999999999976,
          "velocity": 0.5669291338582677,
          "duration": 0.09999999999999964
        },
        {
          "name": "G3",
          "midi": 55,
          "time": 11.399999999999975,
          "velocity": 0.5748031496062992,
          "duration": 0.09999999999999964
        },
        {
          "name": "F#3",
          "midi": 54,
          "time": 11.499999999999975,
          "velocity": 0.5590551181102362,
          "duration": 0.09999999999999964
        },
        {
          "name": "F3",
          "midi": 53,
          "time": 11.599999999999975,
          "velocity": 0.5826771653543307,
          "duration": 0.09999999999999964
        },
        {
          "name": "A#3",
          "midi": 58,
          "time": 11.699999999999974,
          "velocity": 0.6062992125984252,
          "duration": 0.09999999999999964
        },
        {
          "name": "A3",
          "midi": 57,
          "time": 11.799999999999974,
          "velocity": 0.5826771653543307,
          "duration": 0.09999999999999964
        },
        {
          "name": "G#3",
          "midi": 56,
          "time": 11.899999999999974,
          "velocity": 0.5826771653543307,
          "duration": 0.09999999999999964
        },
        {
          "name": "A3",
          "midi": 57,
          "time": 11.999999999999973,
          "velocity": 0.6535433070866141,
          "duration": 0.09999999999999964
        },
        {
          "name": "G#3",
          "midi": 56,
          "time": 12.099999999999973,
          "velocity": 0.5669291338582677,
          "duration": 0.09999999999999964
        },
        {
          "name": "G3",
          "midi": 55,
          "time": 12.199999999999973,
          "velocity": 0.5433070866141733,
          "duration": 0.09999999999999964
        },
        {
          "name": "F#3",
          "midi": 54,
          "time": 12.299999999999972,
          "velocity": 0.5354330708661418,
          "duration": 0.09999999999999964
        },
        {
          "name": "F3",
          "midi": 53,
          "time": 12.399999999999972,
          "velocity": 0.6141732283464567,
          "duration": 0.09999999999999964
        },
        {
          "name": "F#3",
          "midi": 54,
          "time": 12.499999999999972,
          "velocity": 0.5748031496062992,
          "duration": 0.09999999999999964
        },
        {
          "name": "G3",
          "midi": 55,
          "time": 12.599999999999971,
          "velocity": 0.5905511811023622,
          "duration": 0.09999999999999964
        },
        {
          "name": "G#3",
          "midi": 56,
          "time": 12.69999999999997,
          "velocity": 0.5669291338582677,
          "duration": 0.09999999999999964
        },
        {
          "name": "A3",
          "midi": 57,
          "time": 12.79999999999997,
          "velocity": 0.6141732283464567,
          "duration": 0.09999999999999964
        },
        {
          "name": "G#3",
          "midi": 56,
          "time": 12.89999999999997,
          "velocity": 0.5826771653543307,
          "duration": 0.09999999999999964
        },
        {
          "name": "G3",
          "midi": 55,
          "time": 12.99999999999997,
          "velocity": 0.5669291338582677,
          "duration": 0.09999999999999964
        },
        {
          "name": "F#3",
          "midi": 54,
          "time": 13.09999999999997,
          "velocity": 0.5905511811023622,
          "duration": 0.09999999999999964
        },
        {
          "name": "F3",
          "midi": 53,
          "time": 13.199999999999969,
          "velocity": 0.5590551181102362,
          "duration": 0.09999999999999964
        },
        {
          "name": "A#3",
          "midi": 58,
          "time": 13.299999999999969,
          "velocity": 0.6692913385826772,
          "duration": 0.09999999999999964
        },
        {
          "name": "A3",
          "midi": 57,
          "time": 13.399999999999968,
          "velocity": 0.5984251968503937,
          "duration": 0.09999999999999964
        },
        {
          "name": "G#3",
          "midi": 56,
          "time": 13.499999999999968,
          "velocity": 0.5748031496062992,
          "duration": 0.09999999999999964
        },
        {
          "name": "A3",
          "midi": 57,
          "time": 13.599999999999968,
          "velocity": 0.6141732283464567,
          "duration": 0.09999999999999964
        },
        {
          "name": "G#3",
          "midi": 56,
          "time": 13.699999999999967,
          "velocity": 0.5669291338582677,
          "duration": 0.09999999999999964
        },
        {
          "name": "G3",
          "midi": 55,
          "time": 13.799999999999967,
          "velocity": 0.5354330708661418,
          "duration": 0.09999999999999964
        },
        {
          "name": "F#3",
          "midi": 54,
          "time": 13.899999999999967,
          "velocity": 0.5826771653543307,
          "duration": 0.09999999999999964
        },
        {
          "name": "F3",
          "midi": 53,
          "time": 13.999999999999966,
          "velocity": 0.6456692913385826,
          "duration": 0.09999999999999964
        },
        {
          "name": "F#3",
          "midi": 54,
          "time": 14.099999999999966,
          "velocity": 0.5511811023622047,
          "duration": 0.09999999999999964
        },
        {
          "name": "G3",
          "midi": 55,
          "time": 14.199999999999966,
          "velocity": 0.5984251968503937,
          "duration": 0.09999999999999964
        },
        {
          "name": "G#3",
          "midi": 56,
          "time": 14.299999999999965,
          "velocity": 0.5905511811023622,
          "duration": 0.09999999999999964
        },
        {
          "name": "A3",
          "midi": 57,
          "time": 14.399999999999965,
          "velocity": 0.6614173228346457,
          "duration": 0.09999999999999964
        },
        {
          "name": "G#3",
          "midi": 56,
          "time": 14.499999999999964,
          "velocity": 0.5748031496062992,
          "duration": 0.09999999999999964
        },
        {
          "name": "G3",
          "midi": 55,
          "time": 14.599999999999964,
          "velocity": 0.5826771653543307,
          "duration": 0.09999999999999964
        },
        {
          "name": "F#3",
          "midi": 54,
          "time": 14.699999999999964,
          "velocity": 0.5826771653543307,
          "duration": 0.09999999999999964
        },
        {
          "name": "G3",
          "midi": 55,
          "time": 14.799999999999963,
          "velocity": 0.6377952755905512,
          "duration": 0.09999999999999964
        },
        {
          "name": "F#3",
          "midi": 54,
          "time": 14.899999999999963,
          "velocity": 0.5826771653543307,
          "duration": 0.09999999999999964
        },
        {
          "name": "F3",
          "midi": 53,
          "time": 14.999999999999963,
          "velocity": 0.5905511811023622,
          "duration": 0.09999999999999964
        },
        {
          "name": "E3",
          "midi": 52,
          "time": 15.099999999999962,
          "velocity": 0.5590551181102362,
          "duration": 0.09999999999999964
        },
        {
          "name": "F3",
          "midi": 53,
          "time": 15.199999999999962,
          "velocity": 0.6377952755905512,
          "duration": 0.09999999999999964
        },
        {
          "name": "F#3",
          "midi": 54,
          "time": 15.299999999999962,
          "velocity": 0.5826771653543307,
          "duration": 0.09999999999999964
        },
        {
          "name": "G3",
          "midi": 55,
          "time": 15.399999999999961,
          "velocity": 0.5590551181102362,
          "duration": 0.09999999999999964
        },
        {
          "name": "G#3",
          "midi": 56,
          "time": 15.499999999999961,
          "velocity": 0.5590551181102362,
          "duration": 0.09999999999999964
        },
        {
          "name": "A3",
          "midi": 57,
          "time": 15.59999999999996,
          "velocity": 0.6062992125984252,
          "duration": 0.09999999999999964
        },
        {
          "name": "A#3",
          "midi": 58,
          "time": 15.69999999999996,
          "velocity": 0.5984251968503937,
          "duration": 0.09999999999999964
        },
        {
          "name": "A3",
          "midi": 57,
          "time": 15.79999999999996,
          "velocity": 0.5590551181102362,
          "duration": 0.09999999999999964
        },
        {
          "name": "G#3",
          "midi": 56,
          "time": 15.89999999999996,
          "velocity": 0.5669291338582677,
          "duration": 0.09999999999999964
        },
        {
          "name": "A3",
          "midi": 57,
          "time": 15.99999999999996,
          "velocity": 0.6220472440944882,
          "duration": 0.09999999999999964
        },
        {
          "name": "G#3",
          "midi": 56,
          "time": 16.09999999999996,
          "velocity": 0.5511811023622047,
          "duration": 0.10000000000000142
        },
        {
          "name": "G3",
          "midi": 55,
          "time": 16.19999999999996,
          "velocity": 0.5748031496062992,
          "duration": 0.10000000000000142
        },
        {
          "name": "F#3",
          "midi": 54,
          "time": 16.29999999999996,
          "velocity": 0.5905511811023622,
          "duration": 0.10000000000000142
        },
        {
          "name": "G3",
          "midi": 55,
          "time": 16.399999999999963,
          "velocity": 0.6377952755905512,
          "duration": 0.10000000000000142
        },
        {
          "name": "F#3",
          "midi": 54,
          "time": 16.499999999999964,
          "velocity": 0.5984251968503937,
          "duration": 0.10000000000000142
        },
        {
          "name": "F3",
          "midi": 53,
          "time": 16.599999999999966,
          "velocity": 0.5590551181102362,
          "duration": 0.10000000000000142
        },
        {
          "name": "E3",
          "midi": 52,
          "time": 16.699999999999967,
          "velocity": 0.5748031496062992,
          "duration": 0.10000000000000142
        },
        {
          "name": "F3",
          "midi": 53,
          "time": 16.79999999999997,
          "velocity": 0.6614173228346457,
          "duration": 0.10000000000000142
        },
        {
          "name": "F#3",
          "midi": 54,
          "time": 16.89999999999997,
          "velocity": 0.5511811023622047,
          "duration": 0.10000000000000142
        },
        {
          "name": "G3",
          "midi": 55,
          "time": 16.99999999999997,
          "velocity": 0.5669291338582677,
          "duration": 0.10000000000000142
        },
        {
          "name": "G#3",
          "midi": 56,
          "time": 17.099999999999973,
          "velocity": 0.5669291338582677,
          "duration": 0.10000000000000142
        },
        {
          "name": "A3",
          "midi": 57,
          "time": 17.199999999999974,
          "velocity": 0.6377952755905512,
          "duration": 0.10000000000000142
        },
        {
          "name": "A#3",
          "midi": 58,
          "time": 17.299999999999976,
          "velocity": 0.5984251968503937,
          "duration": 0.10000000000000142
        },
        {
          "name": "A3",
          "midi": 57,
          "time": 17.399999999999977,
          "velocity": 0.5826771653543307,
          "duration": 0.10000000000000142
        },
        {
          "name": "G#3",
          "midi": 56,
          "time": 17.49999999999998,
          "velocity": 0.5433070866141733,
          "duration": 0.10000000000000142
        },
        {
          "name": "A3",
          "midi": 57,
          "time": 17.59999999999998,
          "velocity": 0.7795275590551181,
          "duration": 0.4000000000000057
        },
        {
          "name": "A2",
          "midi": 45,
          "time": 17.69999999999998,
          "velocity": 0.4645669291338583,
          "duration": 0.10000000000000142
        },
        {
          "name": "A2",
          "midi": 45,
          "time": 17.799999999999983,
          "velocity": 0.47244094488188976,
          "duration": 0.10000000000000142
        },
        {
          "name": "A2",
          "midi": 45,
          "time": 17.899999999999984,
          "velocity": 0.5118110236220472,
          "duration": 0.10000000000000142
        },
        {
          "name": "A2",
          "midi": 45,
          "time": 17.999999999999986,
          "velocity": 0.4645669291338583,
          "duration": 0.10000000000000142
        },
        {
          "name": "A2",
          "midi": 45,
          "time": 18.099999999999987,
          "velocity": 0.5275590551181102,
          "duration": 0.10000000000000142
        },
        {
          "name": "A2",
          "midi": 45,
          "time": 18.19999999999999,
          "velocity": 0.5118110236220472,
          "duration": 0.10000000000000142
        },
        {
          "name": "A2",
          "midi": 45,
          "time": 18.29999999999999,
          "velocity": 0.5039370078740157,
          "duration": 0.10000000000000142
        },
        {
          "name": "A#3",
          "midi": 58,
          "time": 18.39999999999999,
          "velocity": 0.7165354330708661,
          "duration": 0.20000000000000284
        },
        {
          "name": "G#2",
          "midi": 44,
          "time": 18.499999999999993,
          "velocity": 0.4330708661417323,
          "duration": 0.20000000000000284
        },
        {
          "name": "A#3",
          "midi": 58,
          "time": 18.599999999999994,
          "velocity": 0.6771653543307087,
          "duration": 0.20000000000000284
        },
        {
          "name": "G#2",
          "midi": 44,
          "time": 18.699999999999996,
          "velocity": 0.4566929133858268,
          "duration": 0.20000000000000284
        },
        {
          "name": "A#3",
          "midi": 58,
          "time": 18.799999999999997,
          "velocity": 0.7322834645669292,
          "duration": 0.20000000000000284
        },
        {
          "name": "G#2",
          "midi": 44,
          "time": 18.9,
          "velocity": 0.4330708661417323,
          "duration": 0.20000000000000284
        },
        {
          "name": "A#3",
          "midi": 58,
          "time": 19,
          "velocity": 0.7322834645669292,
          "duration": 0.20000000000000284
        },
        {
          "name": "G#2",
          "midi": 44,
          "time": 19.1,
          "velocity": 0.47244094488188976,
          "duration": 0.10000000000000142
        },
        {
          "name": "A3",
          "midi": 57,
          "time": 19.200000000000003,
          "velocity": 0.5669291338582677,
          "duration": 0.4000000000000057
        },
        {
          "name": "A2",
          "midi": 45,
          "time": 19.300000000000004,
          "velocity": 0.4566929133858268,
          "duration": 0.10000000000000142
        },
        {
          "name": "A2",
          "midi": 45,
          "time": 19.400000000000006,
          "velocity": 0.4409448818897638,
          "duration": 0.10000000000000142
        },
        {
          "name": "A2",
          "midi": 45,
          "time": 19.500000000000007,
          "velocity": 0.44881889763779526,
          "duration": 0.10000000000000142
        },
        {
          "name": "A2",
          "midi": 45,
          "time": 19.60000000000001,
          "velocity": 0.4566929133858268,
          "duration": 0.10000000000000142
        },
        {
          "name": "A2",
          "midi": 45,
          "time": 19.70000000000001,
          "velocity": 0.41732283464566927,
          "duration": 0.10000000000000142
        },
        {
          "name": "A2",
          "midi": 45,
          "time": 19.80000000000001,
          "velocity": 0.4094488188976378,
          "duration": 0.10000000000000142
        },
        {
          "name": "A2",
          "midi": 45,
          "time": 19.900000000000013,
          "velocity": 0.4566929133858268,
          "duration": 0.10000000000000142
        },
        {
          "name": "A#3",
          "midi": 58,
          "time": 20.000000000000014,
          "velocity": 0.4566929133858268,
          "duration": 0.20000000000000284
        },
        {
          "name": "G#2",
          "midi": 44,
          "time": 20.100000000000016,
          "velocity": 0.41732283464566927,
          "duration": 0.20000000000000284
        },
        {
          "name": "A#3",
          "midi": 58,
          "time": 20.200000000000017,
          "velocity": 0.4881889763779528,
          "duration": 0.20000000000000284
        },
        {
          "name": "G#2",
          "midi": 44,
          "time": 20.30000000000002,
          "velocity": 0.4330708661417323,
          "duration": 0.20000000000000284
        },
        {
          "name": "A#3",
          "midi": 58,
          "time": 20.40000000000002,
          "velocity": 0.4566929133858268,
          "duration": 0.20000000000000284
        },
        {
          "name": "G#2",
          "midi": 44,
          "time": 20.50000000000002,
          "velocity": 0.4409448818897638,
          "duration": 0.20000000000000284
        },
        {
          "name": "A#3",
          "midi": 58,
          "time": 20.600000000000023,
          "velocity": 0.48031496062992124,
          "duration": 0.20000000000000284
        },
        {
          "name": "G#2",
          "midi": 44,
          "time": 20.700000000000024,
          "velocity": 0.41732283464566927,
          "duration": 0.10000000000000142
        },
        {
          "name": "A3",
          "midi": 57,
          "time": 20.800000000000026,
          "velocity": 0.6535433070866141,
          "duration": 0.10000000000000142
        },
        {
          "name": "A2",
          "midi": 45,
          "time": 20.800000000000026,
          "velocity": 0.5511811023622047,
          "duration": 0.4000000000000057
        },
        {
          "name": "A#3",
          "midi": 58,
          "time": 20.900000000000027,
          "velocity": 0.3937007874015748,
          "duration": 0.10000000000000142
        },
        {
          "name": "A3",
          "midi": 57,
          "time": 21.00000000000003,
          "velocity": 0.4094488188976378,
          "duration": 0.10000000000000142
        },
        {
          "name": "G#3",
          "midi": 56,
          "time": 21.10000000000003,
          "velocity": 0.4094488188976378,
          "duration": 0.10000000000000142
        },
        {
          "name": "A3",
          "midi": 57,
          "time": 21.20000000000003,
          "velocity": 0.4566929133858268,
          "duration": 0.10000000000000142
        },
        {
          "name": "A#3",
          "midi": 58,
          "time": 21.300000000000033,
          "velocity": 0.4015748031496063,
          "duration": 0.10000000000000142
        },
        {
          "name": "A3",
          "midi": 57,
          "time": 21.400000000000034,
          "velocity": 0.4409448818897638,
          "duration": 0.10000000000000142
        },
        {
          "name": "G#3",
          "midi": 56,
          "time": 21.500000000000036,
          "velocity": 0.4566929133858268,
          "duration": 0.10000000000000142
        },
        {
          "name": "A3",
          "midi": 57,
          "time": 21.600000000000037,
          "velocity": 0.5196850393700787,
          "duration": 0.10000000000000142
        },
        {
          "name": "A#3",
          "midi": 58,
          "time": 21.70000000000004,
          "velocity": 0.4409448818897638,
          "duration": 0.10000000000000142
        },
        {
          "name": "A3",
          "midi": 57,
          "time": 21.80000000000004,
          "velocity": 0.4645669291338583,
          "duration": 0.10000000000000142
        },
        {
          "name": "G#3",
          "midi": 56,
          "time": 21.90000000000004,
          "velocity": 0.4881889763779528,
          "duration": 0.10000000000000142
        },
        {
          "name": "A3",
          "midi": 57,
          "time": 22.000000000000043,
          "velocity": 0.5275590551181102,
          "duration": 0.10000000000000142
        },
        {
          "name": "A#3",
          "midi": 58,
          "time": 22.100000000000044,
          "velocity": 0.5196850393700787,
          "duration": 0.10000000000000142
        },
        {
          "name": "A3",
          "midi": 57,
          "time": 22.200000000000045,
          "velocity": 0.49606299212598426,
          "duration": 0.10000000000000142
        },
        {
          "name": "G#3",
          "midi": 56,
          "time": 22.300000000000047,
          "velocity": 0.5118110236220472,
          "duration": 0.10000000000000142
        },
        {
          "name": "A3",
          "midi": 57,
          "time": 22.40000000000005,
          "velocity": 0.5590551181102362,
          "duration": 0.10000000000000142
        },
        {
          "name": "A#3",
          "midi": 58,
          "time": 22.50000000000005,
          "velocity": 0.5354330708661418,
          "duration": 0.10000000000000142
        },
        {
          "name": "B3",
          "midi": 59,
          "time": 22.60000000000005,
          "velocity": 0.49606299212598426,
          "duration": 0.10000000000000142
        },
        {
          "name": "C4",
          "midi": 60,
          "time": 22.700000000000053,
          "velocity": 0.5590551181102362,
          "duration": 0.10000000000000142
        },
        {
          "name": "C#4",
          "midi": 61,
          "time": 22.800000000000054,
          "velocity": 0.5984251968503937,
          "duration": 0.10000000000000142
        },
        {
          "name": "C4",
          "midi": 60,
          "time": 22.900000000000055,
          "velocity": 0.5748031496062992,
          "duration": 0.10000000000000142
        },
        {
          "name": "B3",
          "midi": 59,
          "time": 23.000000000000057,
          "velocity": 0.5826771653543307,
          "duration": 0.10000000000000142
        },
        {
          "name": "A#3",
          "midi": 58,
          "time": 23.10000000000006,
          "velocity": 0.5590551181102362,
          "duration": 0.10000000000000142
        },
        {
          "name": "A3",
          "midi": 57,
          "time": 23.20000000000006,
          "velocity": 0.6141732283464567,
          "duration": 0.10000000000000142
        },
        {
          "name": "A#3",
          "midi": 58,
          "time": 23.30000000000006,
          "velocity": 0.5905511811023622,
          "duration": 0.10000000000000142
        },
        {
          "name": "B3",
          "midi": 59,
          "time": 23.400000000000063,
          "velocity": 0.5826771653543307,
          "duration": 0.10000000000000142
        },
        {
          "name": "C4",
          "midi": 60,
          "time": 23.500000000000064,
          "velocity": 0.6141732283464567,
          "duration": 0.10000000000000142
        },
        {
          "name": "C#4",
          "midi": 61,
          "time": 23.600000000000065,
          "velocity": 0.6220472440944882,
          "duration": 0.10000000000000142
        },
        {
          "name": "C4",
          "midi": 60,
          "time": 23.700000000000067,
          "velocity": 0.5826771653543307,
          "duration": 0.10000000000000142
        },
        {
          "name": "B3",
          "midi": 59,
          "time": 23.800000000000068,
          "velocity": 0.6220472440944882,
          "duration": 0.10000000000000142
        },
        {
          "name": "A#3",
          "midi": 58,
          "time": 23.90000000000007,
          "velocity": 0.6141732283464567,
          "duration": 0.10000000000000142
        },
        {
          "name": "D4",
          "midi": 62,
          "time": 24.00000000000007,
          "velocity": 0.7086614173228346,
          "duration": 0.4000000000000057
        },
        {
          "name": "D3",
          "midi": 50,
          "time": 24.100000000000072,
          "velocity": 0.6062992125984252,
          "duration": 0.10000000000000142
        },
        {
          "name": "D3",
          "midi": 50,
          "time": 24.200000000000074,
          "velocity": 0.6062992125984252,
          "duration": 0.10000000000000142
        },
        {
          "name": "D3",
          "midi": 50,
          "time": 24.300000000000075,
          "velocity": 0.6062992125984252,
          "duration": 0.10000000000000142
        },
        {
          "name": "D3",
          "midi": 50,
          "time": 24.400000000000077,
          "velocity": 0.6220472440944882,
          "duration": 0.10000000000000142
        },
        {
          "name": "D3",
          "midi": 50,
          "time": 24.500000000000078,
          "velocity": 0.6062992125984252,
          "duration": 0.10000000000000142
        },
        {
          "name": "D3",
          "midi": 50,
          "time": 24.60000000000008,
          "velocity": 0.6220472440944882,
          "duration": 0.10000000000000142
        },
        {
          "name": "D3",
          "midi": 50,
          "time": 24.70000000000008,
          "velocity": 0.6220472440944882,
          "duration": 0.10000000000000142
        },
        {
          "name": "D#4",
          "midi": 63,
          "time": 24.800000000000082,
          "velocity": 0.6062992125984252,
          "duration": 0.20000000000000284
        },
        {
          "name": "C#3",
          "midi": 49,
          "time": 24.900000000000084,
          "velocity": 0.6220472440944882,
          "duration": 0.20000000000000284
        },
        {
          "name": "D#4",
          "midi": 63,
          "time": 25.000000000000085,
          "velocity": 0.6692913385826772,
          "duration": 0.20000000000000284
        },
        {
          "name": "C#3",
          "midi": 49,
          "time": 25.100000000000087,
          "velocity": 0.6299212598425197,
          "duration": 0.20000000000000284
        },
        {
          "name": "D#4",
          "midi": 63,
          "time": 25.200000000000088,
          "velocity": 0.6377952755905512,
          "duration": 0.20000000000000284
        },
        {
          "name": "C#3",
          "midi": 49,
          "time": 25.30000000000009,
          "velocity": 0.6062992125984252,
          "duration": 0.20000000000000284
        },
        {
          "name": "D#4",
          "midi": 63,
          "time": 25.40000000000009,
          "velocity": 0.6377952755905512,
          "duration": 0.20000000000000284
        },
        {
          "name": "C#3",
          "midi": 49,
          "time": 25.500000000000092,
          "velocity": 0.5984251968503937,
          "duration": 0.10000000000000142
        },
        {
          "name": "D4",
          "midi": 62,
          "time": 25.600000000000094,
          "velocity": 0.5905511811023622,
          "duration": 0.4000000000000057
        },
        {
          "name": "D3",
          "midi": 50,
          "time": 25.700000000000095,
          "velocity": 0.4566929133858268,
          "duration": 0.10000000000000142
        },
        {
          "name": "D3",
          "midi": 50,
          "time": 25.800000000000097,
          "velocity": 0.4645669291338583,
          "duration": 0.10000000000000142
        },
        {
          "name": "D3",
          "midi": 50,
          "time": 25.900000000000098,
          "velocity": 0.49606299212598426,
          "duration": 0.10000000000000142
        },
        {
          "name": "D3",
          "midi": 50,
          "time": 26.0000000000001,
          "velocity": 0.4409448818897638,
          "duration": 0.10000000000000142
        },
        {
          "name": "D3",
          "midi": 50,
          "time": 26.1000000000001,
          "velocity": 0.4566929133858268,
          "duration": 0.10000000000000142
        },
        {
          "name": "D3",
          "midi": 50,
          "time": 26.200000000000102,
          "velocity": 0.4566929133858268,
          "duration": 0.10000000000000142
        },
        {
          "name": "D3",
          "midi": 50,
          "time": 26.300000000000104,
          "velocity": 0.4645669291338583,
          "duration": 0.10000000000000142
        },
        {
          "name": "D#4",
          "midi": 63,
          "time": 26.400000000000105,
          "velocity": 0.5196850393700787,
          "duration": 0.20000000000000284
        },
        {
          "name": "C#3",
          "midi": 49,
          "time": 26.500000000000107,
          "velocity": 0.44881889763779526,
          "duration": 0.20000000000000284
        },
        {
          "name": "D#4",
          "midi": 63,
          "time": 26.600000000000108,
          "velocity": 0.4881889763779528,
          "duration": 0.20000000000000284
        },
        {
          "name": "C#3",
          "midi": 49,
          "time": 26.70000000000011,
          "velocity": 0.4566929133858268,
          "duration": 0.20000000000000284
        },
        {
          "name": "D#4",
          "midi": 63,
          "time": 26.80000000000011,
          "velocity": 0.5275590551181102,
          "duration": 0.20000000000000284
        },
        {
          "name": "C#3",
          "midi": 49,
          "time": 26.900000000000112,
          "velocity": 0.44881889763779526,
          "duration": 0.20000000000000284
        },
        {
          "name": "D#4",
          "midi": 63,
          "time": 27.000000000000114,
          "velocity": 0.5275590551181102,
          "duration": 0.20000000000000284
        },
        {
          "name": "C#3",
          "midi": 49,
          "time": 27.100000000000115,
          "velocity": 0.4881889763779528,
          "duration": 0.10000000000000142
        },
        {
          "name": "D4",
          "midi": 62,
          "time": 27.200000000000117,
          "velocity": 0.5118110236220472,
          "duration": 0.10000000000000142
        },
        {
          "name": "D3",
          "midi": 50,
          "time": 27.200000000000117,
          "velocity": 0.49606299212598426,
          "duration": 0.8000000000000114
        },
        {
          "name": "D#4",
          "midi": 63,
          "time": 27.300000000000118,
          "velocity": 0.44881889763779526,
          "duration": 0.10000000000000142
        },
        {
          "name": "D4",
          "midi": 62,
          "time": 27.40000000000012,
          "velocity": 0.4409448818897638,
          "duration": 0.10000000000000142
        },
        {
          "name": "C#4",
          "midi": 61,
          "time": 27.50000000000012,
          "velocity": 0.4251968503937008,
          "duration": 0.10000000000000142
        },
        {
          "name": "D4",
          "midi": 62,
          "time": 27.600000000000122,
          "velocity": 0.4645669291338583,
          "duration": 0.10000000000000142
        },
        {
          "name": "D#4",
          "midi": 63,
          "time": 27.700000000000124,
          "velocity": 0.44881889763779526,
          "duration": 0.10000000000000142
        },
        {
          "name": "D4",
          "midi": 62,
          "time": 27.800000000000125,
          "velocity": 0.4409448818897638,
          "duration": 0.10000000000000142
        },
        {
          "name": "C#4",
          "midi": 61,
          "time": 27.900000000000126,
          "velocity": 0.4645669291338583,
          "duration": 0.10000000000000142
        },
        {
          "name": "D4",
          "midi": 62,
          "time": 28.000000000000128,
          "velocity": 0.5039370078740157,
          "duration": 0.10000000000000142
        },
        {
          "name": "D#4",
          "midi": 63,
          "time": 28.10000000000013,
          "velocity": 0.4881889763779528,
          "duration": 0.10000000000000142
        },
        {
          "name": "D4",
          "midi": 62,
          "time": 28.20000000000013,
          "velocity": 0.4566929133858268,
          "duration": 0.10000000000000142
        },
        {
          "name": "C#4",
          "midi": 61,
          "time": 28.300000000000132,
          "velocity": 0.4645669291338583,
          "duration": 0.10000000000000142
        },
        {
          "name": "D4",
          "midi": 62,
          "time": 28.400000000000134,
          "velocity": 0.5275590551181102,
          "duration": 0.10000000000000142
        },
        {
          "name": "D#4",
          "midi": 63,
          "time": 28.500000000000135,
          "velocity": 0.4881889763779528,
          "duration": 0.10000000000000142
        },
        {
          "name": "D4",
          "midi": 62,
          "time": 28.600000000000136,
          "velocity": 0.48031496062992124,
          "duration": 0.10000000000000142
        },
        {
          "name": "C#4",
          "midi": 61,
          "time": 28.700000000000138,
          "velocity": 0.4881889763779528,
          "duration": 0.10000000000000142
        },
        {
          "name": "D4",
          "midi": 62,
          "time": 28.80000000000014,
          "velocity": 0.5118110236220472,
          "duration": 0.10000000000000142
        },
        {
          "name": "D#4",
          "midi": 63,
          "time": 28.90000000000014,
          "velocity": 0.5354330708661418,
          "duration": 0.10000000000000142
        },
        {
          "name": "E4",
          "midi": 64,
          "time": 29.000000000000142,
          "velocity": 0.5433070866141733,
          "duration": 0.10000000000000142
        },
        {
          "name": "F4",
          "midi": 65,
          "time": 29.100000000000144,
          "velocity": 0.5196850393700787,
          "duration": 0.10000000000000142
        },
        {
          "name": "F#4",
          "midi": 66,
          "time": 29.200000000000145,
          "velocity": 0.5511811023622047,
          "duration": 0.10000000000000142
        },
        {
          "name": "F4",
          "midi": 65,
          "time": 29.300000000000146,
          "velocity": 0.5354330708661418,
          "duration": 0.10000000000000142
        },
        {
          "name": "E4",
          "midi": 64,
          "time": 29.400000000000148,
          "velocity": 0.5354330708661418,
          "duration": 0.10000000000000142
        },
        {
          "name": "D#4",
          "midi": 63,
          "time": 29.50000000000015,
          "velocity": 0.5590551181102362,
          "duration": 0.10000000000000142
        },
        {
          "name": "D4",
          "midi": 62,
          "time": 29.60000000000015,
          "velocity": 0.5748031496062992,
          "duration": 0.10000000000000142
        },
        {
          "name": "D#4",
          "midi": 63,
          "time": 29.700000000000152,
          "velocity": 0.5826771653543307,
          "duration": 0.10000000000000142
        },
        {
          "name": "E4",
          "midi": 64,
          "time": 29.800000000000153,
          "velocity": 0.5669291338582677,
          "duration": 0.10000000000000142
        },
        {
          "name": "F4",
          "midi": 65,
          "time": 29.900000000000155,
          "velocity": 0.6062992125984252,
          "duration": 0.10000000000000142
        },
        {
          "name": "F#4",
          "midi": 66,
          "time": 30.000000000000156,
          "velocity": 0.5669291338582677,
          "duration": 0.10000000000000142
        },
        {
          "name": "F4",
          "midi": 65,
          "time": 30.100000000000158,
          "velocity": 0.6220472440944882,
          "duration": 0.10000000000000142
        },
        {
          "name": "E4",
          "midi": 64,
          "time": 30.20000000000016,
          "velocity": 0.6062992125984252,
          "duration": 0.10000000000000142
        },
        {
          "name": "D#4",
          "midi": 63,
          "time": 30.30000000000016,
          "velocity": 0.5826771653543307,
          "duration": 0.10000000000000142
        },
        {
          "name": "D5",
          "midi": 74,
          "time": 30.400000000000162,
          "velocity": 0.7007874015748031,
          "duration": 0.10000000000000142
        },
        {
          "name": "C#5",
          "midi": 73,
          "time": 30.500000000000163,
          "velocity": 0.5826771653543307,
          "duration": 0.10000000000000142
        },
        {
          "name": "C5",
          "midi": 72,
          "time": 30.600000000000165,
          "velocity": 0.5669291338582677,
          "duration": 0.10000000000000142
        },
        {
          "name": "B4",
          "midi": 71,
          "time": 30.700000000000166,
          "velocity": 0.5669291338582677,
          "duration": 0.10000000000000142
        },
        {
          "name": "A#4",
          "midi": 70,
          "time": 30.800000000000168,
          "velocity": 0.5511811023622047,
          "duration": 0.10000000000000142
        },
        {
          "name": "D#5",
          "midi": 75,
          "time": 30.90000000000017,
          "velocity": 0.5433070866141733,
          "duration": 0.10000000000000142
        },
        {
          "name": "D5",
          "midi": 74,
          "time": 31.00000000000017,
          "velocity": 0.5590551181102362,
          "duration": 0.10000000000000142
        },
        {
          "name": "C#5",
          "midi": 73,
          "time": 31.100000000000172,
          "velocity": 0.5905511811023622,
          "duration": 0.10000000000000142
        },
        {
          "name": "D5",
          "midi": 74,
          "time": 31.200000000000173,
          "velocity": 0.5905511811023622,
          "duration": 0.10000000000000142
        },
        {
          "name": "C#5",
          "midi": 73,
          "time": 31.300000000000175,
          "velocity": 0.5669291338582677,
          "duration": 0.10000000000000142
        },
        {
          "name": "C5",
          "midi": 72,
          "time": 31.400000000000176,
          "velocity": 0.5354330708661418,
          "duration": 0.10000000000000142
        },
        {
          "name": "B4",
          "midi": 71,
          "time": 31.500000000000178,
          "velocity": 0.5590551181102362,
          "duration": 0.10000000000000142
        },
        {
          "name": "A#4",
          "midi": 70,
          "time": 31.60000000000018,
          "velocity": 0.5511811023622047,
          "duration": 0.10000000000000142
        },
        {
          "name": "B4",
          "midi": 71,
          "time": 31.70000000000018,
          "velocity": 0.5511811023622047,
          "duration": 0.10000000000000142
        },
        {
          "name": "C5",
          "midi": 72,
          "time": 31.800000000000182,
          "velocity": 0.5905511811023622,
          "duration": 0.10000000000000142
        },
        {
          "name": "C#5",
          "midi": 73,
          "time": 31.900000000000183,
          "velocity": 0.5905511811023622,
          "duration": 0.10000000000000142
        },
        {
          "name": "D5",
          "midi": 74,
          "time": 32.000000000000185,
          "velocity": 0.5669291338582677,
          "duration": 0.10000000000000142
        },
        {
          "name": "C#5",
          "midi": 73,
          "time": 32.100000000000186,
          "velocity": 0.5354330708661418,
          "duration": 0.10000000000000142
        },
        {
          "name": "C5",
          "midi": 72,
          "time": 32.20000000000019,
          "velocity": 0.5196850393700787,
          "duration": 0.10000000000000142
        },
        {
          "name": "B4",
          "midi": 71,
          "time": 32.30000000000019,
          "velocity": 0.5039370078740157,
          "duration": 0.10000000000000142
        },
        {
          "name": "C5",
          "midi": 72,
          "time": 32.40000000000019,
          "velocity": 0.4645669291338583,
          "duration": 0.10000000000000142
        },
        {
          "name": "B4",
          "midi": 71,
          "time": 32.50000000000019,
          "velocity": 0.49606299212598426,
          "duration": 0.10000000000000142
        },
        {
          "name": "A#4",
          "midi": 70,
          "time": 32.60000000000019,
          "velocity": 0.5196850393700787,
          "duration": 0.10000000000000142
        },
        {
          "name": "A4",
          "midi": 69,
          "time": 32.700000000000195,
          "velocity": 0.5354330708661418,
          "duration": 0.10000000000000142
        },
        {
          "name": "A#4",
          "midi": 70,
          "time": 32.800000000000196,
          "velocity": 0.4645669291338583,
          "duration": 0.10000000000000142
        },
        {
          "name": "B4",
          "midi": 71,
          "time": 32.9000000000002,
          "velocity": 0.5118110236220472,
          "duration": 0.10000000000000142
        },
        {
          "name": "C5",
          "midi": 72,
          "time": 33.0000000000002,
          "velocity": 0.5511811023622047,
          "duration": 0.10000000000000142
        },
        {
          "name": "C#5",
          "midi": 73,
          "time": 33.1000000000002,
          "velocity": 0.5511811023622047,
          "duration": 0.10000000000000142
        },
        {
          "name": "C5",
          "midi": 72,
          "time": 33.2000000000002,
          "velocity": 0.5826771653543307,
          "duration": 0.10000000000000142
        },
        {
          "name": "C#5",
          "midi": 73,
          "time": 33.3000000000002,
          "velocity": 0.6062992125984252,
          "duration": 0.10000000000000142
        },
        {
          "name": "D5",
          "midi": 74,
          "time": 33.400000000000205,
          "velocity": 0.6692913385826772,
          "duration": 0.10000000000000142
        },
        {
          "name": "D#5",
          "midi": 75,
          "time": 33.500000000000206,
          "velocity": 0.6614173228346457,
          "duration": 0.10000000000000142
        },
        {
          "name": "E5",
          "midi": 76,
          "time": 33.60000000000021,
          "velocity": 0.7716535433070866,
          "duration": 0.10000000000000142
        },
        {
          "name": "D#5",
          "midi": 75,
          "time": 33.70000000000021,
          "velocity": 0.6535433070866141,
          "duration": 0.10000000000000142
        },
        {
          "name": "D5",
          "midi": 74,
          "time": 33.80000000000021,
          "velocity": 0.6535433070866141,
          "duration": 0.10000000000000142
        },
        {
          "name": "C#5",
          "midi": 73,
          "time": 33.90000000000021,
          "velocity": 0.6614173228346457,
          "duration": 0.10000000000000142
        },
        {
          "name": "D5",
          "midi": 74,
          "time": 34.00000000000021,
          "velocity": 0.6456692913385826,
          "duration": 0.10000000000000142
        },
        {
          "name": "C#5",
          "midi": 73,
          "time": 34.100000000000215,
          "velocity": 0.6771653543307087,
          "duration": 0.10000000000000142
        },
        {
          "name": "C5",
          "midi": 72,
          "time": 34.200000000000216,
          "velocity": 0.6771653543307087,
          "duration": 0.10000000000000142
        },
        {
          "name": "B4",
          "midi": 71,
          "time": 34.30000000000022,
          "velocity": 0.6771653543307087,
          "duration": 0.10000000000000142
        },
        {
          "name": "C5",
          "midi": 72,
          "time": 34.40000000000022,
          "velocity": 0.6299212598425197,
          "duration": 0.10000000000000142
        },
        {
          "name": "B4",
          "midi": 71,
          "time": 34.50000000000022,
          "velocity": 0.6535433070866141,
          "duration": 0.10000000000000142
        },
        {
          "name": "A#4",
          "midi": 70,
          "time": 34.60000000000022,
          "velocity": 0.6771653543307087,
          "duration": 0.10000000000000142
        },
        {
          "name": "A4",
          "midi": 69,
          "time": 34.70000000000022,
          "velocity": 0.6614173228346457,
          "duration": 0.10000000000000142
        },
        {
          "name": "G#4",
          "midi": 68,
          "time": 34.800000000000225,
          "velocity": 0.6456692913385826,
          "duration": 0.10000000000000142
        },
        {
          "name": "G4",
          "midi": 67,
          "time": 34.900000000000226,
          "velocity": 0.6771653543307087,
          "duration": 0.10000000000000142
        },
        {
          "name": "F#4",
          "midi": 66,
          "time": 35.00000000000023,
          "velocity": 0.6377952755905512,
          "duration": 0.10000000000000142
        },
        {
          "name": "F4",
          "midi": 65,
          "time": 35.10000000000023,
          "velocity": 0.6614173228346457,
          "duration": 0.10000000000000142
        },
        {
          "name": "E4",
          "midi": 64,
          "time": 35.20000000000023,
          "velocity": 0.6692913385826772,
          "duration": 0.10000000000000142
        },
        {
          "name": "F4",
          "midi": 65,
          "time": 35.30000000000023,
          "velocity": 0.6141732283464567,
          "duration": 0.10000000000000142
        },
        {
          "name": "E4",
          "midi": 64,
          "time": 35.40000000000023,
          "velocity": 0.6062992125984252,
          "duration": 0.10000000000000142
        },
        {
          "name": "D#4",
          "midi": 63,
          "time": 35.500000000000234,
          "velocity": 0.5905511811023622,
          "duration": 0.10000000000000142
        },
        {
          "name": "E4",
          "midi": 64,
          "time": 35.600000000000236,
          "velocity": 0.6141732283464567,
          "duration": 0.10000000000000142
        },
        {
          "name": "F4",
          "midi": 65,
          "time": 35.70000000000024,
          "velocity": 0.5984251968503937,
          "duration": 0.10000000000000142
        },
        {
          "name": "E4",
          "midi": 64,
          "time": 35.80000000000024,
          "velocity": 0.6062992125984252,
          "duration": 0.10000000000000142
        },
        {
          "name": "D#4",
          "midi": 63,
          "time": 35.90000000000024,
          "velocity": 0.5748031496062992,
          "duration": 0.10000000000000142
        },
        {
          "name": "E4",
          "midi": 64,
          "time": 36.00000000000024,
          "velocity": 0.5669291338582677,
          "duration": 0.10000000000000142
        },
        {
          "name": "F4",
          "midi": 65,
          "time": 36.10000000000024,
          "velocity": 0.5826771653543307,
          "duration": 0.10000000000000142
        },
        {
          "name": "E4",
          "midi": 64,
          "time": 36.200000000000244,
          "velocity": 0.5433070866141733,
          "duration": 0.10000000000000142
        },
        {
          "name": "D#4",
          "midi": 63,
          "time": 36.300000000000246,
          "velocity": 0.5118110236220472,
          "duration": 0.10000000000000142
        },
        {
          "name": "E4",
          "midi": 64,
          "time": 36.40000000000025,
          "velocity": 0.5511811023622047,
          "duration": 0.10000000000000142
        },
        {
          "name": "F4",
          "midi": 65,
          "time": 36.50000000000025,
          "velocity": 0.5039370078740157,
          "duration": 0.10000000000000142
        },
        {
          "name": "E4",
          "midi": 64,
          "time": 36.60000000000025,
          "velocity": 0.5039370078740157,
          "duration": 0.10000000000000142
        },
        {
          "name": "D#4",
          "midi": 63,
          "time": 36.70000000000025,
          "velocity": 0.47244094488188976,
          "duration": 0.10000000000000142
        },
        {
          "name": "E4",
          "midi": 64,
          "time": 36.80000000000025,
          "velocity": 0.4645669291338583,
          "duration": 0.3999999999999986
        },
        {
          "name": "E3",
          "midi": 52,
          "time": 37.20000000000025,
          "velocity": 0.5039370078740157,
          "duration": 0.060000000000002274
        },
        {
          "name": "C3",
          "midi": 48,
          "time": 37.400000000000254,
          "velocity": 0.49606299212598426,
          "duration": 0.060000000000002274
        },
        {
          "name": "A2",
          "midi": 45,
          "time": 37.60000000000026,
          "velocity": 0.5275590551181102,
          "duration": 0.060000000000002274
        },
        {
          "name": "F2",
          "midi": 41,
          "time": 37.80000000000026,
          "velocity": 0.5118110236220472,
          "duration": 0.060000000000002274
        },
        {
          "name": "A2",
          "midi": 45,
          "time": 38.00000000000026,
          "velocity": 0.5354330708661418,
          "duration": 0.060000000000002274
        },
        {
          "name": "C3",
          "midi": 48,
          "time": 38.200000000000266,
          "velocity": 0.5039370078740157,
          "duration": 0.060000000000002274
        },
        {
          "name": "E3",
          "midi": 52,
          "time": 38.40000000000027,
          "velocity": 0.5118110236220472,
          "duration": 0.10000000000000142
        },
        {
          "name": "D#3",
          "midi": 51,
          "time": 38.50000000000027,
          "velocity": 0.5275590551181102,
          "duration": 0.10000000000000142
        },
        {
          "name": "D3",
          "midi": 50,
          "time": 38.60000000000027,
          "velocity": 0.4881889763779528,
          "duration": 0.10000000000000142
        },
        {
          "name": "C#3",
          "midi": 49,
          "time": 38.70000000000027,
          "velocity": 0.48031496062992124,
          "duration": 0.10000000000000142
        },
        {
          "name": "D3",
          "midi": 50,
          "time": 38.800000000000274,
          "velocity": 0.48031496062992124,
          "duration": 0.10000000000000142
        },
        {
          "name": "C#3",
          "midi": 49,
          "time": 38.900000000000276,
          "velocity": 0.4881889763779528,
          "duration": 0.10000000000000142
        },
        {
          "name": "C3",
          "midi": 48,
          "time": 39.00000000000028,
          "velocity": 0.4645669291338583,
          "duration": 0.10000000000000142
        },
        {
          "name": "B2",
          "midi": 47,
          "time": 39.10000000000028,
          "velocity": 0.4645669291338583,
          "duration": 0.10000000000000142
        },
        {
          "name": "C3",
          "midi": 48,
          "time": 39.20000000000028,
          "velocity": 0.4881889763779528,
          "duration": 0.10000000000000142
        },
        {
          "name": "B2",
          "midi": 47,
          "time": 39.30000000000028,
          "velocity": 0.4251968503937008,
          "duration": 0.10000000000000142
        },
        {
          "name": "A#2",
          "midi": 46,
          "time": 39.40000000000028,
          "velocity": 0.4251968503937008,
          "duration": 0.10000000000000142
        },
        {
          "name": "A2",
          "midi": 45,
          "time": 39.500000000000284,
          "velocity": 0.4330708661417323,
          "duration": 0.10000000000000142
        },
        {
          "name": "G#2",
          "midi": 44,
          "time": 39.600000000000286,
          "velocity": 0.44881889763779526,
          "duration": 0.10000000000000142
        },
        {
          "name": "G2",
          "midi": 43,
          "time": 39.70000000000029,
          "velocity": 0.4251968503937008,
          "duration": 0.10000000000000142
        },
        {
          "name": "F#2",
          "midi": 42,
          "time": 39.80000000000029,
          "velocity": 0.44881889763779526,
          "duration": 0.10000000000000142
        },
        {
          "name": "F2",
          "midi": 41,
          "time": 39.90000000000029,
          "velocity": 0.3937007874015748,
          "duration": 0.10000000000000142
        },
        {
          "name": "E2",
          "midi": 40,
          "time": 40.00000000000029,
          "velocity": 0.4094488188976378,
          "duration": 0.3999999999999986
        },
        {
          "name": "E4",
          "midi": 64,
          "time": 40.40000000000029,
          "velocity": 0.48031496062992124,
          "duration": 0.20000000000000284
        },
        {
          "name": "C4",
          "midi": 60,
          "time": 40.60000000000029,
          "velocity": 0.4251968503937008,
          "duration": 0.20000000000000284
        },
        {
          "name": "A3",
          "midi": 57,
          "time": 40.800000000000296,
          "velocity": 0.4330708661417323,
          "duration": 0.20000000000000284
        },
        {
          "name": "F3",
          "midi": 53,
          "time": 41.0000000000003,
          "velocity": 0.44881889763779526,
          "duration": 0.20000000000000284
        },
        {
          "name": "A3",
          "midi": 57,
          "time": 41.2000000000003,
          "velocity": 0.4251968503937008,
          "duration": 0.20000000000000284
        },
        {
          "name": "C4",
          "midi": 60,
          "time": 41.400000000000304,
          "velocity": 0.4645669291338583,
          "duration": 0.20000000000000284
        },
        {
          "name": "E4",
          "midi": 64,
          "time": 41.60000000000031,
          "velocity": 0.4645669291338583,
          "duration": 0.3999999999999986
        },
        {
          "name": "E5",
          "midi": 76,
          "time": 42.000000000000306,
          "velocity": 0.6456692913385826,
          "duration": 0.060000000000002274
        },
        {
          "name": "C5",
          "midi": 72,
          "time": 42.20000000000031,
          "velocity": 0.6062992125984252,
          "duration": 0.060000000000002274
        },
        {
          "name": "A4",
          "midi": 69,
          "time": 42.40000000000031,
          "velocity": 0.6456692913385826,
          "duration": 0.060000000000002274
        },
        {
          "name": "F4",
          "midi": 65,
          "time": 42.600000000000314,
          "velocity": 0.6220472440944882,
          "duration": 0.060000000000002274
        },
        {
          "name": "A4",
          "midi": 69,
          "time": 42.80000000000032,
          "velocity": 0.6299212598425197,
          "duration": 0.060000000000002274
        },
        {
          "name": "C5",
          "midi": 72,
          "time": 43.00000000000032,
          "velocity": 0.6377952755905512,
          "duration": 0.060000000000002274
        },
        {
          "name": "E5",
          "midi": 76,
          "time": 43.20000000000032,
          "velocity": 0.6692913385826772,
          "duration": 0.11916666666666487
        },
        {
          "name": "E4",
          "midi": 64,
          "time": 43.60000000000032,
          "velocity": 0.5196850393700787,
          "duration": 0.3999999999999986
        },
        {
          "name": "E6",
          "midi": 88,
          "time": 44.00000000000032,
          "velocity": 0.6299212598425197,
          "duration": 0.3999999999999986
        },
        {
          "name": "E2",
          "midi": 40,
          "time": 44.40000000000032,
          "velocity": 0.2755905511811024,
          "duration": 0.10000000000000142
        },
        {
          "name": "F2",
          "midi": 41,
          "time": 44.50000000000032,
          "velocity": 0.30708661417322836,
          "duration": 0.10000000000000142
        },
        {
          "name": "F#2",
          "midi": 42,
          "time": 44.60000000000032,
          "velocity": 0.33070866141732286,
          "duration": 0.10000000000000142
        },
        {
          "name": "G2",
          "midi": 43,
          "time": 44.70000000000032,
          "velocity": 0.3228346456692913,
          "duration": 0.10000000000000142
        },
        {
          "name": "G#2",
          "midi": 44,
          "time": 44.800000000000324,
          "velocity": 0.33070866141732286,
          "duration": 0.10000000000000142
        },
        {
          "name": "A2",
          "midi": 45,
          "time": 44.900000000000325,
          "velocity": 0.3858267716535433,
          "duration": 0.10000000000000142
        },
        {
          "name": "A#2",
          "midi": 46,
          "time": 45.00000000000033,
          "velocity": 0.3779527559055118,
          "duration": 0.10000000000000142
        },
        {
          "name": "B2",
          "midi": 47,
          "time": 45.10000000000033,
          "velocity": 0.41732283464566927,
          "duration": 0.10000000000000142
        },
        {
          "name": "C3",
          "midi": 48,
          "time": 45.20000000000033,
          "velocity": 0.4645669291338583,
          "duration": 0.10000000000000142
        },
        {
          "name": "C#3",
          "midi": 49,
          "time": 45.30000000000033,
          "velocity": 0.4566929133858268,
          "duration": 0.10000000000000142
        },
        {
          "name": "D3",
          "midi": 50,
          "time": 45.40000000000033,
          "velocity": 0.4645669291338583,
          "duration": 0.10000000000000142
        },
        {
          "name": "D#3",
          "midi": 51,
          "time": 45.500000000000334,
          "velocity": 0.49606299212598426,
          "duration": 0.10000000000000142
        },
        {
          "name": "E3",
          "midi": 52,
          "time": 45.600000000000335,
          "velocity": 0.5354330708661418,
          "duration": 0.10000000000000142
        },
        {
          "name": "F3",
          "midi": 53,
          "time": 45.70000000000034,
          "velocity": 0.5669291338582677,
          "duration": 0.10000000000000142
        },
        {
          "name": "E3",
          "midi": 52,
          "time": 45.80000000000034,
          "velocity": 0.5433070866141733,
          "duration": 0.10000000000000142
        },
        {
          "name": "D#3",
          "midi": 51,
          "time": 45.90000000000034,
          "velocity": 0.5826771653543307,
          "duration": 0.10000000000000142
        },
        {
          "name": "E3",
          "midi": 52,
          "time": 46.00000000000034,
          "velocity": 0.6141732283464567,
          "duration": 0.10000000000000142
        },
        {
          "name": "F3",
          "midi": 53,
          "time": 46.10000000000034,
          "velocity": 0.6141732283464567,
          "duration": 0.10000000000000142
        },
        {
          "name": "E3",
          "midi": 52,
          "time": 46.200000000000344,
          "velocity": 0.6220472440944882,
          "duration": 0.10000000000000142
        },
        {
          "name": "D#3",
          "midi": 51,
          "time": 46.300000000000345,
          "velocity": 0.6456692913385826,
          "duration": 0.10000000000000142
        },
        {
          "name": "E4",
          "midi": 64,
          "time": 46.40000000000035,
          "velocity": 0.7007874015748031,
          "duration": 0.10000000000000142
        },
        {
          "name": "D#4",
          "midi": 63,
          "time": 46.50000000000035,
          "velocity": 0.6141732283464567,
          "duration": 0.10000000000000142
        },
        {
          "name": "D4",
          "midi": 62,
          "time": 46.60000000000035,
          "velocity": 0.6614173228346457,
          "duration": 0.10000000000000142
        },
        {
          "name": "C#4",
          "midi": 61,
          "time": 46.70000000000035,
          "velocity": 0.6535433070866141,
          "duration": 0.10000000000000142
        },
        {
          "name": "C4",
          "midi": 60,
          "time": 46.80000000000035,
          "velocity": 0.6614173228346457,
          "duration": 0.10000000000000142
        },
        {
          "name": "F4",
          "midi": 65,
          "time": 46.900000000000354,
          "velocity": 0.6535433070866141,
          "duration": 0.10000000000000142
        },
        {
          "name": "E4",
          "midi": 64,
          "time": 47.000000000000355,
          "velocity": 0.6692913385826772,
          "duration": 0.10000000000000142
        },
        {
          "name": "D#4",
          "midi": 63,
          "time": 47.10000000000036,
          "velocity": 0.6220472440944882,
          "duration": 0.10000000000000142
        },
        {
          "name": "E4",
          "midi": 64,
          "time": 47.20000000000036,
          "velocity": 0.6535433070866141,
          "duration": 0.10000000000000142
        },
        {
          "name": "D#4",
          "midi": 63,
          "time": 47.30000000000036,
          "velocity": 0.6535433070866141,
          "duration": 0.10000000000000142
        },
        {
          "name": "D4",
          "midi": 62,
          "time": 47.40000000000036,
          "velocity": 0.6692913385826772,
          "duration": 0.10000000000000142
        },
        {
          "name": "C#4",
          "midi": 61,
          "time": 47.50000000000036,
          "velocity": 0.6456692913385826,
          "duration": 0.10000000000000142
        },
        {
          "name": "C4",
          "midi": 60,
          "time": 47.600000000000364,
          "velocity": 0.6771653543307087,
          "duration": 0.10000000000000142
        },
        {
          "name": "C#4",
          "midi": 61,
          "time": 47.700000000000365,
          "velocity": 0.6299212598425197,
          "duration": 0.10000000000000142
        },
        {
          "name": "D4",
          "midi": 62,
          "time": 47.80000000000037,
          "velocity": 0.6535433070866141,
          "duration": 0.10000000000000142
        },
        {
          "name": "D#4",
          "midi": 63,
          "time": 47.90000000000037,
          "velocity": 0.6456692913385826,
          "duration": 0.10000000000000142
        },
        {
          "name": "E4",
          "midi": 64,
          "time": 48.00000000000037,
          "velocity": 0.6771653543307087,
          "duration": 0.10000000000000142
        },
        {
          "name": "D#4",
          "midi": 63,
          "time": 48.10000000000037,
          "velocity": 0.6062992125984252,
          "duration": 0.10000000000000142
        },
        {
          "name": "D4",
          "midi": 62,
          "time": 48.20000000000037,
          "velocity": 0.6141732283464567,
          "duration": 0.10000000000000142
        },
        {
          "name": "C#4",
          "midi": 61,
          "time": 48.300000000000374,
          "velocity": 0.6456692913385826,
          "duration": 0.10000000000000142
        },
        {
          "name": "C4",
          "midi": 60,
          "time": 48.400000000000375,
          "velocity": 0.6692913385826772,
          "duration": 0.10000000000000142
        },
        {
          "name": "F4",
          "midi": 65,
          "time": 48.50000000000038,
          "velocity": 0.7007874015748031,
          "duration": 0.10000000000000142
        },
        {
          "name": "E4",
          "midi": 64,
          "time": 48.60000000000038,
          "velocity": 0.6062992125984252,
          "duration": 0.10000000000000142
        },
        {
          "name": "D#4",
          "midi": 63,
          "time": 48.70000000000038,
          "velocity": 0.6377952755905512,
          "duration": 0.10000000000000142
        },
        {
          "name": "E4",
          "midi": 64,
          "time": 48.80000000000038,
          "velocity": 0.6692913385826772,
          "duration": 0.10000000000000142
        },
        {
          "name": "D#4",
          "midi": 63,
          "time": 48.90000000000038,
          "velocity": 0.6299212598425197,
          "duration": 0.10000000000000142
        },
        {
          "name": "D4",
          "midi": 62,
          "time": 49.000000000000384,
          "velocity": 0.6062992125984252,
          "duration": 0.10000000000000142
        },
        {
          "name": "C#4",
          "midi": 61,
          "time": 49.100000000000385,
          "velocity": 0.6377952755905512,
          "duration": 0.10000000000000142
        },
        {
          "name": "C4",
          "midi": 60,
          "time": 49.20000000000039,
          "velocity": 0.6299212598425197,
          "duration": 0.10000000000000142
        },
        {
          "name": "C#4",
          "midi": 61,
          "time": 49.30000000000039,
          "velocity": 0.6692913385826772,
          "duration": 0.10000000000000142
        },
        {
          "name": "D4",
          "midi": 62,
          "time": 49.40000000000039,
          "velocity": 0.6062992125984252,
          "duration": 0.10000000000000142
        },
        {
          "name": "D#4",
          "midi": 63,
          "time": 49.50000000000039,
          "velocity": 0.6456692913385826,
          "duration": 0.10000000000000142
        },
        {
          "name": "E4",
          "midi": 64,
          "time": 49.60000000000039,
          "velocity": 0.6141732283464567,
          "duration": 0.10000000000000142
        },
        {
          "name": "D#4",
          "midi": 63,
          "time": 49.700000000000394,
          "velocity": 0.6377952755905512,
          "duration": 0.10000000000000142
        },
        {
          "name": "D4",
          "midi": 62,
          "time": 49.800000000000395,
          "velocity": 0.6062992125984252,
          "duration": 0.10000000000000142
        },
        {
          "name": "C#4",
          "midi": 61,
          "time": 49.9000000000004,
          "velocity": 0.6692913385826772,
          "duration": 0.10000000000000142
        },
        {
          "name": "D4",
          "midi": 62,
          "time": 50.0000000000004,
          "velocity": 0.6062992125984252,
          "duration": 0.10000000000000142
        },
        {
          "name": "C#4",
          "midi": 61,
          "time": 50.1000000000004,
          "velocity": 0.6614173228346457,
          "duration": 0.10000000000000142
        },
        {
          "name": "C4",
          "midi": 60,
          "time": 50.2000000000004,
          "velocity": 0.6692913385826772,
          "duration": 0.10000000000000142
        },
        {
          "name": "B3",
          "midi": 59,
          "time": 50.3000000000004,
          "velocity": 0.6535433070866141,
          "duration": 0.10000000000000142
        },
        {
          "name": "C4",
          "midi": 60,
          "time": 50.400000000000404,
          "velocity": 0.6456692913385826,
          "duration": 0.10000000000000142
        },
        {
          "name": "C#4",
          "midi": 61,
          "time": 50.500000000000405,
          "velocity": 0.6220472440944882,
          "duration": 0.10000000000000142
        },
        {
          "name": "D4",
          "midi": 62,
          "time": 50.600000000000406,
          "velocity": 0.6456692913385826,
          "duration": 0.10000000000000142
        },
        {
          "name": "D#4",
          "midi": 63,
          "time": 50.70000000000041,
          "velocity": 0.6614173228346457,
          "duration": 0.10000000000000142
        },
        {
          "name": "E4",
          "midi": 64,
          "time": 50.80000000000041,
          "velocity": 0.6771653543307087,
          "duration": 0.10000000000000142
        },
        {
          "name": "F4",
          "midi": 65,
          "time": 50.90000000000041,
          "velocity": 0.6692913385826772,
          "duration": 0.10000000000000142
        },
        {
          "name": "E4",
          "midi": 64,
          "time": 51.00000000000041,
          "velocity": 0.6062992125984252,
          "duration": 0.10000000000000142
        },
        {
          "name": "D#4",
          "midi": 63,
          "time": 51.10000000000041,
          "velocity": 0.6220472440944882,
          "duration": 0.10000000000000142
        },
        {
          "name": "E4",
          "midi": 64,
          "time": 51.200000000000415,
          "velocity": 0.6929133858267716,
          "duration": 0.10000000000000142
        },
        {
          "name": "D#4",
          "midi": 63,
          "time": 51.300000000000416,
          "velocity": 0.6614173228346457,
          "duration": 0.10000000000000142
        },
        {
          "name": "D4",
          "midi": 62,
          "time": 51.40000000000042,
          "velocity": 0.6377952755905512,
          "duration": 0.10000000000000142
        },
        {
          "name": "C#4",
          "midi": 61,
          "time": 51.50000000000042,
          "velocity": 0.6062992125984252,
          "duration": 0.10000000000000142
        },
        {
          "name": "D4",
          "midi": 62,
          "time": 51.60000000000042,
          "velocity": 0.6771653543307087,
          "duration": 0.10000000000000142
        },
        {
          "name": "C#4",
          "midi": 61,
          "time": 51.70000000000042,
          "velocity": 0.6377952755905512,
          "duration": 0.10000000000000142
        },
        {
          "name": "C4",
          "midi": 60,
          "time": 51.80000000000042,
          "velocity": 0.6062992125984252,
          "duration": 0.10000000000000142
        },
        {
          "name": "B3",
          "midi": 59,
          "time": 51.900000000000425,
          "velocity": 0.6062992125984252,
          "duration": 0.10000000000000142
        },
        {
          "name": "C4",
          "midi": 60,
          "time": 52.000000000000426,
          "velocity": 0.6850393700787402,
          "duration": 0.10000000000000142
        },
        {
          "name": "C#4",
          "midi": 61,
          "time": 52.10000000000043,
          "velocity": 0.6299212598425197,
          "duration": 0.10000000000000142
        },
        {
          "name": "D4",
          "midi": 62,
          "time": 52.20000000000043,
          "velocity": 0.6771653543307087,
          "duration": 0.10000000000000142
        },
        {
          "name": "D#4",
          "midi": 63,
          "time": 52.30000000000043,
          "velocity": 0.6456692913385826,
          "duration": 0.10000000000000142
        },
        {
          "name": "E4",
          "midi": 64,
          "time": 52.40000000000043,
          "velocity": 0.6456692913385826,
          "duration": 0.10000000000000142
        },
        {
          "name": "F#4",
          "midi": 66,
          "time": 52.50000000000043,
          "velocity": 0.6771653543307087,
          "duration": 0.10000000000000142
        },
        {
          "name": "G4",
          "midi": 67,
          "time": 52.600000000000435,
          "velocity": 0.6692913385826772,
          "duration": 0.10000000000000142
        },
        {
          "name": "G#4",
          "midi": 68,
          "time": 52.700000000000436,
          "velocity": 0.7086614173228346,
          "duration": 0.10000000000000142
        },
        {
          "name": "A4",
          "midi": 69,
          "time": 52.80000000000044,
          "velocity": 0.7480314960629921,
          "duration": 0.10000000000000142
        },
        {
          "name": "G#4",
          "midi": 68,
          "time": 52.90000000000044,
          "velocity": 0.6771653543307087,
          "duration": 0.10000000000000142
        },
        {
          "name": "G4",
          "midi": 67,
          "time": 53.00000000000044,
          "velocity": 0.6850393700787402,
          "duration": 0.10000000000000142
        },
        {
          "name": "F#4",
          "midi": 66,
          "time": 53.10000000000044,
          "velocity": 0.7007874015748031,
          "duration": 0.10000000000000142
        },
        {
          "name": "F4",
          "midi": 65,
          "time": 53.20000000000044,
          "velocity": 0.6850393700787402,
          "duration": 0.10000000000000142
        },
        {
          "name": "A#4",
          "midi": 70,
          "time": 53.300000000000445,
          "velocity": 0.7480314960629921,
          "duration": 0.10000000000000142
        },
        {
          "name": "A4",
          "midi": 69,
          "time": 53.400000000000446,
          "velocity": 0.7007874015748031,
          "duration": 0.10000000000000142
        },
        {
          "name": "G#4",
          "midi": 68,
          "time": 53.50000000000045,
          "velocity": 0.7165354330708661,
          "duration": 0.10000000000000142
        },
        {
          "name": "A4",
          "midi": 69,
          "time": 53.60000000000045,
          "velocity": 0.7401574803149606,
          "duration": 0.10000000000000142
        },
        {
          "name": "G#4",
          "midi": 68,
          "time": 53.70000000000045,
          "velocity": 0.7401574803149606,
          "duration": 0.10000000000000142
        },
        {
          "name": "G4",
          "midi": 67,
          "time": 53.80000000000045,
          "velocity": 0.7007874015748031,
          "duration": 0.10000000000000142
        },
        {
          "name": "F#4",
          "midi": 66,
          "time": 53.90000000000045,
          "velocity": 0.6929133858267716,
          "duration": 0.10000000000000142
        },
        {
          "name": "F4",
          "midi": 65,
          "time": 54.000000000000455,
          "velocity": 0.7637795275590551,
          "duration": 0.10000000000000142
        },
        {
          "name": "F#4",
          "midi": 66,
          "time": 54.100000000000456,
          "velocity": 0.7086614173228346,
          "duration": 0.10000000000000142
        },
        {
          "name": "G4",
          "midi": 67,
          "time": 54.20000000000046,
          "velocity": 0.6929133858267716,
          "duration": 0.10000000000000142
        },
        {
          "name": "G#4",
          "midi": 68,
          "time": 54.30000000000046,
          "velocity": 0.6850393700787402,
          "duration": 0.10000000000000142
        },
        {
          "name": "A4",
          "midi": 69,
          "time": 54.40000000000046,
          "velocity": 0.7401574803149606,
          "duration": 0.10000000000000142
        },
        {
          "name": "G#4",
          "midi": 68,
          "time": 54.50000000000046,
          "velocity": 0.6771653543307087,
          "duration": 0.10000000000000142
        },
        {
          "name": "G4",
          "midi": 67,
          "time": 54.60000000000046,
          "velocity": 0.7007874015748031,
          "duration": 0.10000000000000142
        },
        {
          "name": "F#4",
          "midi": 66,
          "time": 54.700000000000465,
          "velocity": 0.6771653543307087,
          "duration": 0.10000000000000142
        },
        {
          "name": "F4",
          "midi": 65,
          "time": 54.800000000000466,
          "velocity": 0.7322834645669292,
          "duration": 0.10000000000000142
        },
        {
          "name": "A#4",
          "midi": 70,
          "time": 54.90000000000047,
          "velocity": 0.7480314960629921,
          "duration": 0.10000000000000142
        },
        {
          "name": "A4",
          "midi": 69,
          "time": 55.00000000000047,
          "velocity": 0.7165354330708661,
          "duration": 0.10000000000000142
        },
        {
          "name": "G#4",
          "midi": 68,
          "time": 55.10000000000047,
          "velocity": 0.7086614173228346,
          "duration": 0.10000000000000142
        },
        {
          "name": "A4",
          "midi": 69,
          "time": 55.20000000000047,
          "velocity": 0.7480314960629921,
          "duration": 0.10000000000000142
        },
        {
          "name": "G#4",
          "midi": 68,
          "time": 55.30000000000047,
          "velocity": 0.7244094488188977,
          "duration": 0.10000000000000142
        },
        {
          "name": "G4",
          "midi": 67,
          "time": 55.400000000000475,
          "velocity": 0.7086614173228346,
          "duration": 0.10000000000000142
        },
        {
          "name": "F#4",
          "midi": 66,
          "time": 55.500000000000476,
          "velocity": 0.7007874015748031,
          "duration": 0.10000000000000142
        },
        {
          "name": "F4",
          "midi": 65,
          "time": 55.60000000000048,
          "velocity": 0.7244094488188977,
          "duration": 0.10000000000000142
        },
        {
          "name": "F#4",
          "midi": 66,
          "time": 55.70000000000048,
          "velocity": 0.6771653543307087,
          "duration": 0.10000000000000142
        },
        {
          "name": "G4",
          "midi": 67,
          "time": 55.80000000000048,
          "velocity": 0.7007874015748031,
          "duration": 0.10000000000000142
        },
        {
          "name": "G#4",
          "midi": 68,
          "time": 55.90000000000048,
          "velocity": 0.6771653543307087,
          "duration": 0.10000000000000142
        },
        {
          "name": "A4",
          "midi": 69,
          "time": 56.00000000000048,
          "velocity": 0.7480314960629921,
          "duration": 0.10000000000000142
        },
        {
          "name": "G#4",
          "midi": 68,
          "time": 56.100000000000485,
          "velocity": 0.7244094488188977,
          "duration": 0.10000000000000142
        },
        {
          "name": "G4",
          "midi": 67,
          "time": 56.200000000000486,
          "velocity": 0.7165354330708661,
          "duration": 0.10000000000000142
        },
        {
          "name": "F#4",
          "midi": 66,
          "time": 56.30000000000049,
          "velocity": 0.7086614173228346,
          "duration": 0.10000000000000142
        },
        {
          "name": "G4",
          "midi": 67,
          "time": 56.40000000000049,
          "velocity": 0.7637795275590551,
          "duration": 0.10000000000000142
        },
        {
          "name": "F#4",
          "midi": 66,
          "time": 56.50000000000049,
          "velocity": 0.7007874015748031,
          "duration": 0.10000000000000142
        },
        {
          "name": "F4",
          "midi": 65,
          "time": 56.60000000000049,
          "velocity": 0.6771653543307087,
          "duration": 0.10000000000000142
        },
        {
          "name": "E4",
          "midi": 64,
          "time": 56.70000000000049,
          "velocity": 0.7086614173228346,
          "duration": 0.10000000000000142
        },
        {
          "name": "F4",
          "midi": 65,
          "time": 56.800000000000495,
          "velocity": 0.7480314960629921,
          "duration": 0.10000000000000142
        },
        {
          "name": "F#4",
          "midi": 66,
          "time": 56.900000000000496,
          "velocity": 0.7401574803149606,
          "duration": 0.10000000000000142
        },
        {
          "name": "G4",
          "midi": 67,
          "time": 57.0000000000005,
          "velocity": 0.6929133858267716,
          "duration": 0.10000000000000142
        },
        {
          "name": "G#4",
          "midi": 68,
          "time": 57.1000000000005,
          "velocity": 0.7401574803149606,
          "duration": 0.10000000000000142
        },
        {
          "name": "A4",
          "midi": 69,
          "time": 57.2000000000005,
          "velocity": 0.7480314960629921,
          "duration": 0.10000000000000142
        },
        {
          "name": "A#4",
          "midi": 70,
          "time": 57.3000000000005,
          "velocity": 0.7165354330708661,
          "duration": 0.10000000000000142
        },
        {
          "name": "A4",
          "midi": 69,
          "time": 57.4000000000005,
          "velocity": 0.7322834645669292,
          "duration": 0.10000000000000142
        },
        {
          "name": "G#4",
          "midi": 68,
          "time": 57.500000000000504,
          "velocity": 0.7086614173228346,
          "duration": 0.10000000000000142
        },
        {
          "name": "A4",
          "midi": 69,
          "time": 57.600000000000506,
          "velocity": 0.7480314960629921,
          "duration": 0.10000000000000142
        },
        {
          "name": "G#4",
          "midi": 68,
          "time": 57.70000000000051,
          "velocity": 0.6850393700787402,
          "duration": 0.10000000000000142
        },
        {
          "name": "G4",
          "midi": 67,
          "time": 57.80000000000051,
          "velocity": 0.6771653543307087,
          "duration": 0.10000000000000142
        },
        {
          "name": "F#4",
          "midi": 66,
          "time": 57.90000000000051,
          "velocity": 0.7007874015748031,
          "duration": 0.10000000000000142
        },
        {
          "name": "F4",
          "midi": 65,
          "time": 58.00000000000051,
          "velocity": 0.6850393700787402,
          "duration": 0.10000000000000142
        },
        {
          "name": "F#4",
          "midi": 66,
          "time": 58.10000000000051,
          "velocity": 0.6771653543307087,
          "duration": 0.10000000000000142
        },
        {
          "name": "G4",
          "midi": 67,
          "time": 58.200000000000514,
          "velocity": 0.7244094488188977,
          "duration": 0.10000000000000142
        },
        {
          "name": "G#4",
          "midi": 68,
          "time": 58.300000000000516,
          "velocity": 0.7007874015748031,
          "duration": 0.10000000000000142
        },
        {
          "name": "A4",
          "midi": 69,
          "time": 58.40000000000052,
          "velocity": 0.7480314960629921,
          "duration": 0.10000000000000142
        },
        {
          "name": "B4",
          "midi": 71,
          "time": 58.50000000000052,
          "velocity": 0.7244094488188977,
          "duration": 0.10000000000000142
        },
        {
          "name": "C5",
          "midi": 72,
          "time": 58.60000000000052,
          "velocity": 0.6929133858267716,
          "duration": 0.10000000000000142
        },
        {
          "name": "D5",
          "midi": 74,
          "time": 58.70000000000052,
          "velocity": 0.7007874015748031,
          "duration": 0.10000000000000142
        },
        {
          "name": "E5",
          "midi": 76,
          "time": 58.80000000000052,
          "velocity": 0.7086614173228346,
          "duration": 0.10000000000000142
        },
        {
          "name": "F5",
          "midi": 77,
          "time": 58.900000000000524,
          "velocity": 0.7322834645669292,
          "duration": 0.10000000000000142
        },
        {
          "name": "E5",
          "midi": 76,
          "time": 59.000000000000526,
          "velocity": 0.7559055118110236,
          "duration": 0.10000000000000142
        },
        {
          "name": "D#5",
          "midi": 75,
          "time": 59.10000000000053,
          "velocity": 0.7795275590551181,
          "duration": 0.10000000000000142
        },
        {
          "name": "E5",
          "midi": 76,
          "time": 59.20000000000053,
          "velocity": 0.8346456692913385,
          "duration": 0.10000000000000142
        },
        {
          "name": "D#5",
          "midi": 75,
          "time": 59.30000000000053,
          "velocity": 0.7952755905511811,
          "duration": 0.10000000000000142
        },
        {
          "name": "D5",
          "midi": 74,
          "time": 59.40000000000053,
          "velocity": 0.7795275590551181,
          "duration": 0.10000000000000142
        },
        {
          "name": "C#5",
          "midi": 73,
          "time": 59.50000000000053,
          "velocity": 0.7559055118110236,
          "duration": 0.10000000000000142
        },
        {
          "name": "C5",
          "midi": 72,
          "time": 59.600000000000534,
          "velocity": 0.7795275590551181,
          "duration": 0.10000000000000142
        },
        {
          "name": "F5",
          "midi": 77,
          "time": 59.700000000000536,
          "velocity": 0.8188976377952756,
          "duration": 0.10000000000000142
        },
        {
          "name": "E5",
          "midi": 76,
          "time": 59.80000000000054,
          "velocity": 0.7559055118110236,
          "duration": 0.10000000000000142
        },
        {
          "name": "D#5",
          "midi": 75,
          "time": 59.90000000000054,
          "velocity": 0.8110236220472441,
          "duration": 0.10000000000000142
        },
        {
          "name": "E5",
          "midi": 76,
          "time": 60.00000000000054,
          "velocity": 0.8740157480314961,
          "duration": 0.10000000000000142
        },
        {
          "name": "D#5",
          "midi": 75,
          "time": 60.10000000000054,
          "velocity": 0.7795275590551181,
          "duration": 0.10000000000000142
        },
        {
          "name": "D5",
          "midi": 74,
          "time": 60.20000000000054,
          "velocity": 0.7874015748031497,
          "duration": 0.10000000000000142
        },
        {
          "name": "C#5",
          "midi": 73,
          "time": 60.300000000000544,
          "velocity": 0.7795275590551181,
          "duration": 0.10000000000000142
        },
        {
          "name": "C5",
          "midi": 72,
          "time": 60.400000000000546,
          "velocity": 0.7874015748031497,
          "duration": 0.10000000000000142
        },
        {
          "name": "C#5",
          "midi": 73,
          "time": 60.50000000000055,
          "velocity": 0.8031496062992126,
          "duration": 0.10000000000000142
        },
        {
          "name": "D5",
          "midi": 74,
          "time": 60.60000000000055,
          "velocity": 0.7795275590551181,
          "duration": 0.10000000000000142
        },
        {
          "name": "D#5",
          "midi": 75,
          "time": 60.70000000000055,
          "velocity": 0.8031496062992126,
          "duration": 0.10000000000000142
        },
        {
          "name": "E5",
          "midi": 76,
          "time": 60.80000000000055,
          "velocity": 0.8267716535433071,
          "duration": 0.20000000000000284
        },
        {
          "name": "G#4",
          "midi": 68,
          "time": 61.000000000000554,
          "velocity": 0.7086614173228346,
          "duration": 0.10000000000000142
        },
        {
          "name": "A4",
          "midi": 69,
          "time": 61.100000000000556,
          "velocity": 0.7165354330708661,
          "duration": 0.10000000000000142
        },
        {
          "name": "A#4",
          "midi": 70,
          "time": 61.20000000000056,
          "velocity": 0.7165354330708661,
          "duration": 0.10000000000000142
        },
        {
          "name": "B4",
          "midi": 71,
          "time": 61.30000000000056,
          "velocity": 0.7244094488188977,
          "duration": 0.10000000000000142
        },
        {
          "name": "C5",
          "midi": 72,
          "time": 61.40000000000056,
          "velocity": 0.7322834645669292,
          "duration": 0.10000000000000142
        },
        {
          "name": "C#5",
          "midi": 73,
          "time": 61.50000000000056,
          "velocity": 0.7322834645669292,
          "duration": 0.10000000000000142
        },
        {
          "name": "D5",
          "midi": 74,
          "time": 61.60000000000056,
          "velocity": 0.7401574803149606,
          "duration": 0.10000000000000142
        },
        {
          "name": "C#5",
          "midi": 73,
          "time": 61.700000000000564,
          "velocity": 0.7480314960629921,
          "duration": 0.10000000000000142
        },
        {
          "name": "C5",
          "midi": 72,
          "time": 61.800000000000566,
          "velocity": 0.7480314960629921,
          "duration": 0.10000000000000142
        },
        {
          "name": "B4",
          "midi": 71,
          "time": 61.90000000000057,
          "velocity": 0.7559055118110236,
          "duration": 0.10000000000000142
        },
        {
          "name": "C5",
          "midi": 72,
          "time": 62.00000000000057,
          "velocity": 0.7637795275590551,
          "duration": 0.10000000000000142
        },
        {
          "name": "B4",
          "midi": 71,
          "time": 62.10000000000057,
          "velocity": 0.7637795275590551,
          "duration": 0.10000000000000142
        },
        {
          "name": "A#4",
          "midi": 70,
          "time": 62.20000000000057,
          "velocity": 0.7716535433070866,
          "duration": 0.10000000000000142
        },
        {
          "name": "A4",
          "midi": 69,
          "time": 62.30000000000057,
          "velocity": 0.7795275590551181,
          "duration": 0.10000000000000142
        },
        {
          "name": "G#4",
          "midi": 68,
          "time": 62.400000000000574,
          "velocity": 0.7795275590551181,
          "duration": 0.10000000000000142
        },
        {
          "name": "A4",
          "midi": 69,
          "time": 62.500000000000576,
          "velocity": 0.7874015748031497,
          "duration": 0.10000000000000142
        },
        {
          "name": "A#4",
          "midi": 70,
          "time": 62.60000000000058,
          "velocity": 0.7952755905511811,
          "duration": 0.10000000000000142
        },
        {
          "name": "B4",
          "midi": 71,
          "time": 62.70000000000058,
          "velocity": 0.7952755905511811,
          "duration": 0.10000000000000142
        },
        {
          "name": "C5",
          "midi": 72,
          "time": 62.80000000000058,
          "velocity": 0.8031496062992126,
          "duration": 0.10000000000000142
        },
        {
          "name": "C#5",
          "midi": 73,
          "time": 62.90000000000058,
          "velocity": 0.8110236220472441,
          "duration": 0.10000000000000142
        },
        {
          "name": "D5",
          "midi": 74,
          "time": 63.00000000000058,
          "velocity": 0.8110236220472441,
          "duration": 0.10000000000000142
        },
        {
          "name": "D#5",
          "midi": 75,
          "time": 63.100000000000584,
          "velocity": 0.8188976377952756,
          "duration": 0.10000000000000142
        },
        {
          "name": "E5",
          "midi": 76,
          "time": 63.200000000000585,
          "velocity": 0.8267716535433071,
          "duration": 0.10000000000000142
        },
        {
          "name": "F5",
          "midi": 77,
          "time": 63.30000000000059,
          "velocity": 0.8267716535433071,
          "duration": 0.10000000000000142
        },
        {
          "name": "E5",
          "midi": 76,
          "time": 63.40000000000059,
          "velocity": 0.8346456692913385,
          "duration": 0.10000000000000142
        },
        {
          "name": "D#5",
          "midi": 75,
          "time": 63.50000000000059,
          "velocity": 0.84251968503937,
          "duration": 0.10000000000000142
        },
        {
          "name": "E5",
          "midi": 76,
          "time": 63.60000000000059,
          "velocity": 0.84251968503937,
          "duration": 0.10000000000000142
        },
        {
          "name": "F5",
          "midi": 77,
          "time": 63.70000000000059,
          "velocity": 0.8503937007874016,
          "duration": 0.10000000000000142
        },
        {
          "name": "E5",
          "midi": 76,
          "time": 63.800000000000594,
          "velocity": 0.8582677165354331,
          "duration": 0.10000000000000142
        },
        {
          "name": "D#5",
          "midi": 75,
          "time": 63.900000000000595,
          "velocity": 0.8582677165354331,
          "duration": 0.10000000000000142
        },
        {
          "name": "E5",
          "midi": 76,
          "time": 64.0000000000006,
          "velocity": 0.8661417322834646,
          "duration": 0.20000000000000284
        },
        {
          "name": "G#4",
          "midi": 68,
          "time": 64.2000000000006,
          "velocity": 0.7480314960629921,
          "duration": 0.09999999999999432
        },
        {
          "name": "A4",
          "midi": 69,
          "time": 64.3000000000006,
          "velocity": 0.7559055118110236,
          "duration": 0.09999999999999432
        },
        {
          "name": "A#4",
          "midi": 70,
          "time": 64.40000000000059,
          "velocity": 0.7559055118110236,
          "duration": 0.09999999999999432
        },
        {
          "name": "B4",
          "midi": 71,
          "time": 64.50000000000058,
          "velocity": 0.7637795275590551,
          "duration": 0.09999999999999432
        },
        {
          "name": "C5",
          "midi": 72,
          "time": 64.60000000000058,
          "velocity": 0.7716535433070866,
          "duration": 0.09999999999999432
        },
        {
          "name": "C#5",
          "midi": 73,
          "time": 64.70000000000057,
          "velocity": 0.7716535433070866,
          "duration": 0.09999999999999432
        },
        {
          "name": "D5",
          "midi": 74,
          "time": 64.80000000000057,
          "velocity": 0.7795275590551181,
          "duration": 0.09999999999999432
        },
        {
          "name": "C#5",
          "midi": 73,
          "time": 64.90000000000056,
          "velocity": 0.7874015748031497,
          "duration": 0.09999999999999432
        },
        {
          "name": "C5",
          "midi": 72,
          "time": 65.00000000000055,
          "velocity": 0.7874015748031497,
          "duration": 0.09999999999999432
        },
        {
          "name": "B4",
          "midi": 71,
          "time": 65.10000000000055,
          "velocity": 0.7952755905511811,
          "duration": 0.09999999999999432
        },
        {
          "name": "C5",
          "midi": 72,
          "time": 65.20000000000054,
          "velocity": 0.8031496062992126,
          "duration": 0.09999999999999432
        },
        {
          "name": "B4",
          "midi": 71,
          "time": 65.30000000000054,
          "velocity": 0.8031496062992126,
          "duration": 0.09999999999999432
        },
        {
          "name": "A#4",
          "midi": 70,
          "time": 65.40000000000053,
          "velocity": 0.8110236220472441,
          "duration": 0.09999999999999432
        },
        {
          "name": "A4",
          "midi": 69,
          "time": 65.50000000000053,
          "velocity": 0.8188976377952756,
          "duration": 0.09999999999999432
        },
        {
          "name": "G#4",
          "midi": 68,
          "time": 65.60000000000052,
          "velocity": 0.8188976377952756,
          "duration": 0.09999999999999432
        },
        {
          "name": "A4",
          "midi": 69,
          "time": 65.70000000000051,
          "velocity": 0.8267716535433071,
          "duration": 0.09999999999999432
        },
        {
          "name": "A#4",
          "midi": 70,
          "time": 65.80000000000051,
          "velocity": 0.8346456692913385,
          "duration": 0.09999999999999432
        },
        {
          "name": "B4",
          "midi": 71,
          "time": 65.9000000000005,
          "velocity": 0.8346456692913385,
          "duration": 0.09999999999999432
        },
        {
          "name": "C5",
          "midi": 72,
          "time": 66.0000000000005,
          "velocity": 0.84251968503937,
          "duration": 0.09999999999999432
        },
        {
          "name": "C#5",
          "midi": 73,
          "time": 66.10000000000049,
          "velocity": 0.8503937007874016,
          "duration": 0.09999999999999432
        },
        {
          "name": "D5",
          "midi": 74,
          "time": 66.20000000000049,
          "velocity": 0.8503937007874016,
          "duration": 0.09999999999999432
        },
        {
          "name": "D#5",
          "midi": 75,
          "time": 66.30000000000048,
          "velocity": 0.8582677165354331,
          "duration": 0.09999999999999432
        },
        {
          "name": "E5",
          "midi": 76,
          "time": 66.40000000000047,
          "velocity": 0.8661417322834646,
          "duration": 0.09999999999999432
        },
        {
          "name": "F5",
          "midi": 77,
          "time": 66.50000000000047,
          "velocity": 0.8661417322834646,
          "duration": 0.09999999999999432
        },
        {
          "name": "E5",
          "midi": 76,
          "time": 66.60000000000046,
          "velocity": 0.8740157480314961,
          "duration": 0.09999999999999432
        },
        {
          "name": "D#5",
          "midi": 75,
          "time": 66.70000000000046,
          "velocity": 0.8818897637795275,
          "duration": 0.09999999999999432
        },
        {
          "name": "E5",
          "midi": 76,
          "time": 66.80000000000045,
          "velocity": 0.8818897637795275,
          "duration": 0.09999999999999432
        },
        {
          "name": "F#5",
          "midi": 78,
          "time": 66.90000000000045,
          "velocity": 0.889763779527559,
          "duration": 0.09999999999999432
        },
        {
          "name": "G5",
          "midi": 79,
          "time": 67.00000000000044,
          "velocity": 0.8976377952755905,
          "duration": 0.09999999999999432
        },
        {
          "name": "G#5",
          "midi": 80,
          "time": 67.10000000000043,
          "velocity": 0.8976377952755905,
          "duration": 0.09999999999999432
        },
        {
          "name": "A5",
          "midi": 81,
          "time": 67.20000000000043,
          "velocity": 0.905511811023622,
          "duration": 0.09999999999999432
        },
        {
          "name": "G#5",
          "midi": 80,
          "time": 67.30000000000042,
          "velocity": 0.905511811023622,
          "duration": 0.09999999999999432
        },
        {
          "name": "G5",
          "midi": 79,
          "time": 67.40000000000042,
          "velocity": 0.8976377952755905,
          "duration": 0.09999999999999432
        },
        {
          "name": "F#5",
          "midi": 78,
          "time": 67.50000000000041,
          "velocity": 0.889763779527559,
          "duration": 0.09999999999999432
        },
        {
          "name": "G5",
          "midi": 79,
          "time": 67.6000000000004,
          "velocity": 0.889763779527559,
          "duration": 0.09999999999999432
        },
        {
          "name": "F#5",
          "midi": 78,
          "time": 67.7000000000004,
          "velocity": 0.8818897637795275,
          "duration": 0.09999999999999432
        },
        {
          "name": "F5",
          "midi": 77,
          "time": 67.8000000000004,
          "velocity": 0.8740157480314961,
          "duration": 0.09999999999999432
        },
        {
          "name": "E5",
          "midi": 76,
          "time": 67.90000000000039,
          "velocity": 0.8661417322834646,
          "duration": 0.09999999999999432
        },
        {
          "name": "F5",
          "midi": 77,
          "time": 68.00000000000038,
          "velocity": 0.8582677165354331,
          "duration": 0.09999999999999432
        },
        {
          "name": "E5",
          "midi": 76,
          "time": 68.10000000000038,
          "velocity": 0.8582677165354331,
          "duration": 0.09999999999999432
        },
        {
          "name": "D#5",
          "midi": 75,
          "time": 68.20000000000037,
          "velocity": 0.8503937007874016,
          "duration": 0.09999999999999432
        },
        {
          "name": "D5",
          "midi": 74,
          "time": 68.30000000000037,
          "velocity": 0.84251968503937,
          "duration": 0.09999999999999432
        },
        {
          "name": "C#5",
          "midi": 73,
          "time": 68.40000000000036,
          "velocity": 0.8346456692913385,
          "duration": 0.09999999999999432
        },
        {
          "name": "C5",
          "midi": 72,
          "time": 68.50000000000036,
          "velocity": 0.8267716535433071,
          "duration": 0.09999999999999432
        },
        {
          "name": "B4",
          "midi": 71,
          "time": 68.60000000000035,
          "velocity": 0.8267716535433071,
          "duration": 0.09999999999999432
        },
        {
          "name": "A#4",
          "midi": 70,
          "time": 68.70000000000034,
          "velocity": 0.8188976377952756,
          "duration": 0.09999999999999432
        },
        {
          "name": "A4",
          "midi": 69,
          "time": 68.80000000000034,
          "velocity": 0.8110236220472441,
          "duration": 0.09999999999999432
        },
        {
          "name": "G#4",
          "midi": 68,
          "time": 68.90000000000033,
          "velocity": 0.8031496062992126,
          "duration": 0.09999999999999432
        },
        {
          "name": "G4",
          "midi": 67,
          "time": 69.00000000000033,
          "velocity": 0.7952755905511811,
          "duration": 0.09999999999999432
        },
        {
          "name": "F#4",
          "midi": 66,
          "time": 69.10000000000032,
          "velocity": 0.7874015748031497,
          "duration": 0.09999999999999432
        },
        {
          "name": "G4",
          "midi": 67,
          "time": 69.20000000000032,
          "velocity": 0.7874015748031497,
          "duration": 0.09999999999999432
        },
        {
          "name": "F#4",
          "midi": 66,
          "time": 69.30000000000031,
          "velocity": 0.7795275590551181,
          "duration": 0.09999999999999432
        },
        {
          "name": "F4",
          "midi": 65,
          "time": 69.4000000000003,
          "velocity": 0.7716535433070866,
          "duration": 0.09999999999999432
        },
        {
          "name": "E4",
          "midi": 64,
          "time": 69.5000000000003,
          "velocity": 0.7637795275590551,
          "duration": 0.09999999999999432
        },
        {
          "name": "F4",
          "midi": 65,
          "time": 69.60000000000029,
          "velocity": 0.7559055118110236,
          "duration": 0.09999999999999432
        },
        {
          "name": "E4",
          "midi": 64,
          "time": 69.70000000000029,
          "velocity": 0.7559055118110236,
          "duration": 0.09999999999999432
        },
        {
          "name": "D#4",
          "midi": 63,
          "time": 69.80000000000028,
          "velocity": 0.7480314960629921,
          "duration": 0.09999999999999432
        },
        {
          "name": "D4",
          "midi": 62,
          "time": 69.90000000000028,
          "velocity": 0.7401574803149606,
          "duration": 0.09999999999999432
        },
        {
          "name": "C#4",
          "midi": 61,
          "time": 70.00000000000027,
          "velocity": 0.7322834645669292,
          "duration": 0.09999999999999432
        },
        {
          "name": "C4",
          "midi": 60,
          "time": 70.10000000000026,
          "velocity": 0.7244094488188977,
          "duration": 0.09999999999999432
        },
        {
          "name": "B3",
          "midi": 59,
          "time": 70.20000000000026,
          "velocity": 0.7244094488188977,
          "duration": 0.09999999999999432
        },
        {
          "name": "A#3",
          "midi": 58,
          "time": 70.30000000000025,
          "velocity": 0.7165354330708661,
          "duration": 0.09999999999999432
        },
        {
          "name": "A3",
          "midi": 57,
          "time": 70.40000000000025,
          "velocity": 0.7086614173228346,
          "duration": 0.09999999999999432
        },
        {
          "name": "A#3",
          "midi": 58,
          "time": 70.50000000000024,
          "velocity": 0.7165354330708661,
          "duration": 0.09999999999999432
        },
        {
          "name": "A3",
          "midi": 57,
          "time": 70.60000000000024,
          "velocity": 0.7244094488188977,
          "duration": 0.09999999999999432
        },
        {
          "name": "G#3",
          "midi": 56,
          "time": 70.70000000000023,
          "velocity": 0.7322834645669292,
          "duration": 0.09999999999999432
        },
        {
          "name": "A3",
          "midi": 57,
          "time": 70.80000000000022,
          "velocity": 0.7401574803149606,
          "duration": 0.09999999999999432
        },
        {
          "name": "A#3",
          "midi": 58,
          "time": 70.90000000000022,
          "velocity": 0.7480314960629921,
          "duration": 0.09999999999999432
        },
        {
          "name": "A3",
          "midi": 57,
          "time": 71.00000000000021,
          "velocity": 0.7480314960629921,
          "duration": 0.09999999999999432
        },
        {
          "name": "G#3",
          "midi": 56,
          "time": 71.10000000000021,
          "velocity": 0.7559055118110236,
          "duration": 0.09999999999999432
        },
        {
          "name": "A3",
          "midi": 57,
          "time": 71.2000000000002,
          "velocity": 0.7637795275590551,
          "duration": 0.09999999999999432
        },
        {
          "name": "A#3",
          "midi": 58,
          "time": 71.3000000000002,
          "velocity": 0.7716535433070866,
          "duration": 0.09999999999999432
        },
        {
          "name": "A3",
          "midi": 57,
          "time": 71.40000000000019,
          "velocity": 0.7795275590551181,
          "duration": 0.09999999999999432
        },
        {
          "name": "G#3",
          "midi": 56,
          "time": 71.50000000000018,
          "velocity": 0.7874015748031497,
          "duration": 0.09999999999999432
        },
        {
          "name": "A3",
          "midi": 57,
          "time": 71.60000000000018,
          "velocity": 0.7874015748031497,
          "duration": 0.09999999999999432
        },
        {
          "name": "B3",
          "midi": 59,
          "time": 71.70000000000017,
          "velocity": 0.8110236220472441,
          "duration": 0.09999999999999432
        },
        {
          "name": "C#4",
          "midi": 61,
          "time": 71.80000000000017,
          "velocity": 0.8267716535433071,
          "duration": 0.09999999999999432
        },
        {
          "name": "D4",
          "midi": 62,
          "time": 71.90000000000016,
          "velocity": 0.8503937007874016,
          "duration": 0.09999999999999432
        },
        {
          "name": "E4",
          "midi": 64,
          "time": 72.00000000000016,
          "velocity": 0.8661417322834646,
          "duration": 0.09999999999999432
        },
        {
          "name": "F4",
          "midi": 65,
          "time": 72.10000000000015,
          "velocity": 0.8740157480314961,
          "duration": 0.09999999999999432
        },
        {
          "name": "E4",
          "midi": 64,
          "time": 72.20000000000014,
          "velocity": 0.8740157480314961,
          "duration": 0.09999999999999432
        },
        {
          "name": "D#4",
          "midi": 63,
          "time": 72.30000000000014,
          "velocity": 0.8818897637795275,
          "duration": 0.09999999999999432
        },
        {
          "name": "E4",
          "midi": 64,
          "time": 72.40000000000013,
          "velocity": 0.889763779527559,
          "duration": 0.09999999999999432
        },
        {
          "name": "F4",
          "midi": 65,
          "time": 72.50000000000013,
          "velocity": 0.889763779527559,
          "duration": 0.09999999999999432
        },
        {
          "name": "E4",
          "midi": 64,
          "time": 72.60000000000012,
          "velocity": 0.8976377952755905,
          "duration": 0.09999999999999432
        },
        {
          "name": "D#4",
          "midi": 63,
          "time": 72.70000000000012,
          "velocity": 0.8976377952755905,
          "duration": 0.09999999999999432
        },
        {
          "name": "E4",
          "midi": 64,
          "time": 72.80000000000011,
          "velocity": 0.905511811023622,
          "duration": 0.09999999999999432
        },
        {
          "name": "F4",
          "midi": 65,
          "time": 72.9000000000001,
          "velocity": 0.9133858267716536,
          "duration": 0.09999999999999432
        },
        {
          "name": "E4",
          "midi": 64,
          "time": 73.0000000000001,
          "velocity": 0.9133858267716536,
          "duration": 0.09999999999999432
        },
        {
          "name": "D#4",
          "midi": 63,
          "time": 73.1000000000001,
          "velocity": 0.9212598425196851,
          "duration": 0.09999999999999432
        },
        {
          "name": "E4",
          "midi": 64,
          "time": 73.20000000000009,
          "velocity": 0.9291338582677166,
          "duration": 0.09999999999999432
        },
        {
          "name": "F#4",
          "midi": 66,
          "time": 73.30000000000008,
          "velocity": 0.9291338582677166,
          "duration": 0.09999999999999432
        },
        {
          "name": "G4",
          "midi": 67,
          "time": 73.40000000000008,
          "velocity": 0.937007874015748,
          "duration": 0.09999999999999432
        },
        {
          "name": "G#4",
          "midi": 68,
          "time": 73.50000000000007,
          "velocity": 0.937007874015748,
          "duration": 0.09999999999999432
        },
        {
          "name": "A4",
          "midi": 69,
          "time": 73.60000000000007,
          "velocity": 0.9448818897637795,
          "duration": 0.20000000000000284
        },
        {
          "name": "E3",
          "midi": 52,
          "time": 74.00000000000007,
          "velocity": 0.8661417322834646,
          "duration": 0.09999999999999432
        },
        {
          "name": "F3",
          "midi": 53,
          "time": 74.10000000000007,
          "velocity": 0.8582677165354331,
          "duration": 0.09999999999999432
        },
        {
          "name": "F#3",
          "midi": 54,
          "time": 74.20000000000006,
          "velocity": 0.8503937007874016,
          "duration": 0.09999999999999432
        },
        {
          "name": "G3",
          "midi": 55,
          "time": 74.30000000000005,
          "velocity": 0.84251968503937,
          "duration": 0.09999999999999432
        },
        {
          "name": "G#3",
          "midi": 56,
          "time": 74.40000000000005,
          "velocity": 0.8346456692913385,
          "duration": 0.09999999999999432
        },
        {
          "name": "A3",
          "midi": 57,
          "time": 74.50000000000004,
          "velocity": 0.8267716535433071,
          "duration": 0.09999999999999432
        },
        {
          "name": "A#3",
          "midi": 58,
          "time": 74.60000000000004,
          "velocity": 0.8188976377952756,
          "duration": 0.09999999999999432
        },
        {
          "name": "B3",
          "midi": 59,
          "time": 74.70000000000003,
          "velocity": 0.8031496062992126,
          "duration": 0.09999999999999432
        },
        {
          "name": "C4",
          "midi": 60,
          "time": 74.80000000000003,
          "velocity": 0.7952755905511811,
          "duration": 0.09999999999999432
        },
        {
          "name": "C#4",
          "midi": 61,
          "time": 74.90000000000002,
          "velocity": 0.7874015748031497,
          "duration": 0.09999999999999432
        },
        {
          "name": "D4",
          "midi": 62,
          "time": 75.00000000000001,
          "velocity": 0.7795275590551181,
          "duration": 0.09999999999999432
        },
        {
          "name": "D#4",
          "midi": 63,
          "time": 75.10000000000001,
          "velocity": 0.7716535433070866,
          "duration": 0.09999999999999432
        },
        {
          "name": "E4",
          "midi": 64,
          "time": 75.2,
          "velocity": 0.7637795275590551,
          "duration": 0.09999999999999432
        },
        {
          "name": "F4",
          "midi": 65,
          "time": 75.3,
          "velocity": 0.7559055118110236,
          "duration": 0.09999999999999432
        },
        {
          "name": "F#4",
          "midi": 66,
          "time": 75.39999999999999,
          "velocity": 0.7480314960629921,
          "duration": 0.09999999999999432
        },
        {
          "name": "G4",
          "midi": 67,
          "time": 75.49999999999999,
          "velocity": 0.7401574803149606,
          "duration": 0.09999999999999432
        },
        {
          "name": "G#4",
          "midi": 68,
          "time": 75.59999999999998,
          "velocity": 0.7322834645669292,
          "duration": 0.09999999999999432
        },
        {
          "name": "A4",
          "midi": 69,
          "time": 75.69999999999997,
          "velocity": 0.7244094488188977,
          "duration": 0.09999999999999432
        },
        {
          "name": "A#4",
          "midi": 70,
          "time": 75.79999999999997,
          "velocity": 0.7165354330708661,
          "duration": 0.09999999999999432
        },
        {
          "name": "B4",
          "midi": 71,
          "time": 75.89999999999996,
          "velocity": 0.7086614173228346,
          "duration": 0.09999999999999432
        },
        {
          "name": "C5",
          "midi": 72,
          "time": 75.99999999999996,
          "velocity": 0.7007874015748031,
          "duration": 0.09999999999999432
        },
        {
          "name": "C#5",
          "midi": 73,
          "time": 76.09999999999995,
          "velocity": 0.6850393700787402,
          "duration": 0.09999999999999432
        },
        {
          "name": "D5",
          "midi": 74,
          "time": 76.19999999999995,
          "velocity": 0.6771653543307087,
          "duration": 0.09999999999999432
        },
        {
          "name": "D#5",
          "midi": 75,
          "time": 76.29999999999994,
          "velocity": 0.6692913385826772,
          "duration": 0.09999999999999432
        },
        {
          "name": "E5",
          "midi": 76,
          "time": 76.39999999999993,
          "velocity": 0.6614173228346457,
          "duration": 0.09999999999999432
        },
        {
          "name": "F#5",
          "midi": 78,
          "time": 76.49999999999993,
          "velocity": 0.6535433070866141,
          "duration": 0.09999999999999432
        },
        {
          "name": "G5",
          "midi": 79,
          "time": 76.59999999999992,
          "velocity": 0.6456692913385826,
          "duration": 0.09999999999999432
        },
        {
          "name": "G#5",
          "midi": 80,
          "time": 76.69999999999992,
          "velocity": 0.6377952755905512,
          "duration": 0.09999999999999432
        },
        {
          "name": "A5",
          "midi": 81,
          "time": 76.79999999999991,
          "velocity": 0.6299212598425197,
          "duration": 0.20000000000000284
        },
        {
          "name": "C4",
          "midi": 60,
          "time": 77.19999999999992,
          "velocity": 0.6299212598425197,
          "duration": 0.20000000000000284
        },
        {
          "name": "E4",
          "midi": 64,
          "time": 77.19999999999992,
          "velocity": 0.6299212598425197,
          "duration": 0.20000000000000284
        },
        {
          "name": "A4",
          "midi": 69,
          "time": 77.19999999999992,
          "velocity": 0.6299212598425197,
          "duration": 0.20000000000000284
        },
        {
          "name": "A3",
          "midi": 57,
          "time": 77.59999999999992,
          "velocity": 0.5511811023622047,
          "duration": 0.20000000000000284
        }
      ],
      "controlChanges": {},
      "id": 3,
      "name": "Classical Guitar",
      "instrumentNumber": 24,
      "instrument": "acoustic guitar (nylon)",
      "instrumentFamily": "guitar",
      "channelNumber": 0,
      "isPercussion": false
    }
  ]
}